<?xml version="1.0" encoding="UTF-8"?>
<svg xmlns="http://www.w3.org/2000/svg" xmlns:xlink="http://www.w3.org/1999/xlink" version="1.2" >
<font id="CrimeFighter BB">
<font-face  font-family="CrimeFighter BB" units-per-em="1024" ascent="884" descent="-206" font-style="normal" font-weight="400" font-stretch="normal" cap-height="768" x-height="512" underline-position="0" underline-thickness="0" />
<missing-glyph  horiz-adv-x="512" d="M64 0 L64 884 L448 884 L448 0 L64 0 Z M128 64 L384 64 L384 820 L128 820 L128 64 Z " />
<glyph glyph-name="space" unicode="&#x20;" horiz-adv-x="426" d="" />
<glyph glyph-name="exclam" unicode="&#x21;" horiz-adv-x="454" d="M482 706 Q482 699 480 691 Q456 624 408 490 Q385 409 330 251 Q317 221 296 221 Q278 221 266 237 Q254 253 254 272 Q254 333 314 508 Q373 680 411 733 Q425 752 442 752 Q459 752 470.5 737.5 Q482 723 482 706 Z M426 55 Q426 28 395 19 Q324 -2 137 -13 L128 -14 Q85 -16 85 40 Q85 77 123 85 Q189 99 384 99 Q426 99 426 55 Z " />
<glyph glyph-name="quotedbl" unicode="&#x22;" horiz-adv-x="493" d="M542 747 Q548 700 519.5 564 Q491 428 467 391 Q461 382 443 380 Q425 379 408.5 392.5 Q392 406 385 423 Q377 443 386 462 Q419 539 433 614 Q435 625 453 775 Q457 806 477 807 Q499 808 519 789 Q539 770 542 747 Z M324 752 Q331 705 302 569 Q273 433 249 396 Q243 387 225 385 Q208 384 191 397.5 Q174 411 167 428 Q159 448 168 467 Q202 544 215 619 Q217 630 235 780 Q239 811 259 812 Q281 813 301 794 Q321 775 324 752 Z " />
<glyph glyph-name="numbersign" unicode="&#x23;" horiz-adv-x="863" d="M942 550 Q942 529 923 520 Q887 503 686 429 Q659 419 650 406 Q629 378 629 362 Q629 350 645 350 Q671 350 739.5 371 Q808 392 835 392 Q862 392 862 354 Q862 326 836 317 Q769 297 702 277 Q601 245 588 223 Q570 194 554 130 Q530 34 530 31 Q521 3 502 3 Q484 3 470.5 16 Q457 29 457 47 Q457 68 471 111 Q485 154 485 176 Q485 193 467 193 Q458 193 416 179 Q394 171 373 164 Q347 154 337 138 Q323 118 311 83 Q293 30 291 25 Q280 1 262 1 Q246 1 234.5 10.5 Q223 20 223 35 Q223 46 230.5 66 Q238 86 238 96 Q238 110 215 110 Q205 110 187 104.5 Q169 99 160 99 Q129 99 129 137 Q129 164 168.5 181 Q208 198 248 214 Q297 239 315 282 Q319 293 319 301 Q319 322 268 322 Q252 322 219 320 Q186 318 169 318 Q133 318 133 351 Q133 382 160 389 Q219 401 278 412 Q366 430 383 445 Q397 458 456 564 Q509 659 527 659 Q540 659 552.5 645.5 Q565 632 565 619 Q565 605 530 551 Q495 497 495 477 Q495 477 497 472.5 Q499 468 506 468 Q581 468 610 526 Q630 568 662 615 Q707 681 730 681 Q745 681 754.5 667.5 Q764 654 764 639 Q764 625 737.5 587.5 Q711 550 711 536 Q711 533 718 533 Q737 533 815.5 562.5 Q894 592 915 592 Q942 592 942 550 Z M540 362 Q540 374 524 374 Q484 374 445 353 Q399 327 399 289 Q399 279 414 279 Q446 279 491 304 Q540 333 540 362 Z " />
<glyph glyph-name="dollar" unicode="&#x24;" horiz-adv-x="752" d="M816 654 Q816 642 806.5 625.5 Q797 609 787 609 Q772 609 759 625 Q747 631 727 631 Q715 631 697 628 Q642 619 628 609 Q607 595 593 548 Q581 510 581 502 Q581 489 616 488 Q582 489 663 489 Q717 489 750 465 Q788 438 788 386 Q788 305 664 200 Q560 113 466 77 Q457 38 437 -40 Q428 -69 401 -69 Q384 -69 371.5 -57.5 Q359 -46 359 -29 Q359 -25 374 51 Q330 45 297 45 Q227 45 173 75 Q107 110 107 174 Q107 227 156 264 Q170 275 182 275 Q198 275 208.5 260.5 Q219 246 219 229 Q219 216 214 206 Q213 199 213 194 Q213 175 224 170 Q251 159 314 159 Q377 159 397 190 Q404 202 422 277 Q436 340 436 345 Q436 368 422 368 Q389 368 325.5 353 Q262 338 229 338 Q169 338 169 384 Q169 400 179 413 Q286 567 496 656 Q523 668 534 681 Q540 688 571 760 Q596 818 618 818 Q634 818 647.5 806.5 Q661 795 661 780 Q661 771 657 754.5 Q653 738 653 729 Q653 720 666 717 Q675 715 693 716 Q719 718 715 718 Q750 718 779 703 Q816 686 816 654 Z M487 535 Q487 545 480 545 Q464 545 415.5 512.5 Q367 480 367 468 Q367 461 388 461 Q411 461 446 467 Q462 470 474.5 493 Q487 516 487 535 Z M703 386 Q703 403 656 403 Q573 403 552 380 Q539 367 518 279 Q511 253 511 240 Q511 225 519 225 Q544 225 623.5 294.5 Q703 364 703 386 Z " />
<glyph glyph-name="percent" unicode="&#x25;" horiz-adv-x="1097" d="M1098 316 Q1098 218 1039 130 Q972 32 880 32 Q755 32 755 181 Q755 254 805.5 333 Q856 412 922 442 Q928 483 962 483 Q1026 483 1064 429 Q1098 381 1098 316 Z M1053 795 Q1053 783 1042 767 Q1006 718 945 653 Q893 599 842 546 Q736 433 641 326 Q541 213 442 100 Q312 -42 228 -103 Q215 -112 203 -112 Q188 -112 177.5 -100 Q167 -88 167 -73 Q167 -50 258.5 43.5 Q350 137 350 163 Q350 185 303 196 Q239 212 215 230 Q165 267 159 349 Q158 364 158 384 Q158 498 216 599 Q278 708 380 746 Q388 780 452 804 Q505 824 548 824 Q600 824 643 800 Q690 774 709 728 Q722 698 727 657 Q730 620 734 584 Q735 575 740 575 Q751 575 787 615 Q835 671 903 740 Q1001 839 1022 839 Q1034 839 1043.5 823.5 Q1053 808 1053 795 Z M1002 307 Q1002 355 970 377 Q915 365 876 294 Q841 229 841 168 Q841 133 871 133 Q923 133 964 195 Q1002 252 1002 307 Z M641 640 Q641 681 609 704 Q581 724 538 723 L534 723 Q534 719 534 715 Q534 698 525.5 683 Q517 668 502 668 Q494 668 478 670 Q462 672 454 672 Q369 672 302 570 Q243 478 243 388 Q243 352 264.5 325 Q286 298 321 298 Q411 298 526 425 Q641 552 641 640 Z " />
<glyph glyph-name="ampersand" unicode="&#x26;" horiz-adv-x="950" d="M917 52 Q917 37 906.5 24.5 Q896 12 881 12 Q878 13 784 21.5 Q690 30 682 30 Q651 30 574 0 Q436 -54 345 -54 Q266 -54 192 -14 Q105 33 105 105 Q105 158 150 216 Q178 251 235 300 Q283 342 286 351 Q287 354 287 360 Q287 371 278 411 Q269 451 269 475 Q269 597 367 682 Q461 763 584 763 Q659 763 719 728 Q792 687 792 618 Q792 543 702 473 Q658 438 535 373 Q445 325 445 303 Q445 272 523.5 212.5 Q602 153 634 153 Q652 153 677 178 Q714 217 714 276 Q714 282 712 289 Q708 293 699 293 Q686 293 663 282.5 Q640 272 627 272 Q607 272 594.5 288 Q582 304 582 325 Q582 361 627 381 Q662 398 704 398 Q759 398 787 359 Q812 325 812 267 Q812 239 798.5 195.5 Q785 152 785 136 Q785 113 818 105 Q851 97 883 90 Q917 79 917 52 Z M696 613 Q696 632 650 645 Q615 654 587 654 Q508 654 441 608 Q366 556 366 479 Q366 460 372 441 Q380 414 395 414 Q423 414 557 497 Q696 583 696 613 Z M488 96 Q488 111 455 137 Q418 166 383 205 Q352 239 331 239 Q303 239 257 192 Q214 149 202 119 Q202 81 255 63 Q292 51 342 51 Q379 51 424 60 Q488 74 488 96 Z " />
<glyph glyph-name="quotesingle" unicode="&#x27;" horiz-adv-x="268" d="M324 752 Q331 705 302 569 Q273 433 249 396 Q243 387 225 385 Q208 384 191 397.5 Q174 411 167 428 Q159 448 168 467 Q202 544 215 619 Q217 630 235 780 Q239 811 259 812 Q281 813 301 794 Q321 775 324 752 Z " />
<glyph glyph-name="parenleft" unicode="&#x28;" horiz-adv-x="442" d="M604 831 Q604 817 586 805 Q537 772 487 738 Q442 705 397 654 Q226 459 226 229 Q226 215 226 201 Q230 135 253 83 Q266 55 313 -22 Q322 -37 322 -50 Q322 -67 310 -80.5 Q298 -94 281 -94 Q266 -94 249 -79 Q194 -29 165 60 Q139 138 139 222 Q139 480 334 697 Q447 822 562 864 Q572 868 579 868 Q590 868 597 856 Q604 844 604 831 Z " />
<glyph glyph-name="parenright" unicode="&#x29;" horiz-adv-x="442" d="M486 548 Q486 291 291 75 Q246 25 186 -21 Q117 -72 63 -91 Q54 -94 48 -94 Q35 -94 28 -82 Q21 -70 21 -57 Q21 -44 39 -31 Q89 2 137.5 36.5 Q186 71 227 119 Q399 314 399 544 Q399 620 378 677 Q362 720 312 796 Q301 813 301 825 Q301 839 316 854 Q331 869 345 869 Q358 869 375 853 Q430 803 459 712 Q486 632 486 548 Z " />
<glyph glyph-name="asterisk" unicode="&#x2a;" horiz-adv-x="572" d="M657 667 Q657 644 594 612.5 Q531 581 531 567 Q531 552 569.5 519 Q608 486 608 471 Q608 458 596.5 442.5 Q585 427 572 427 Q563 427 523.5 462.5 Q484 498 466 498 Q452 498 424.5 422.5 Q397 347 367 347 Q352 347 341.5 358 Q331 369 331 384 Q331 396 345 427.5 Q359 459 359 475 Q359 484 353 484 Q335 484 278.5 457 Q222 430 211 430 Q181 430 181 463 Q181 485 201 496 Q241 515 281 534 Q345 566 345 579 Q345 589 283 643 Q221 697 221 720 Q221 732 232.5 743.5 Q244 755 256 755 Q264 755 324.5 705.5 Q385 656 407 656 Q418 656 448 741 Q478 826 507 826 Q541 826 541 795 Q541 773 526.5 729.5 Q512 686 512 664 Q512 659 517 659 Q530 659 570 681 Q610 703 628 703 Q657 703 657 667 Z " />
<glyph glyph-name="plus" unicode="&#x2b;" horiz-adv-x="715" d="M745 410 Q745 379 711 373 Q643 365 574 357 Q483 346 443 331 Q432 327 432 307 Q432 293 436.5 266 Q441 239 441 225 Q441 171 397 171 Q366 171 363 240 Q359 313 343 317 Q337 318 325 318 Q311 318 284.5 317 Q258 316 244 316 Q149 316 149 355 Q149 391 188 403 Q207 409 268 411 Q319 413 334 424 Q341 429 341 447 Q341 471 338 517.5 Q335 564 335 587 Q335 615 366 615 Q390 615 393 589 Q396 550 399 512 Q405 454 416 442 Q423 434 439 434 Q446 434 459 436 Q650 462 705 462 Q745 462 745 410 Z " />
<glyph glyph-name="comma" unicode="&#x2c;" horiz-adv-x="359" d="M334 192 Q334 185 332 177 Q307 81 253 -12 Q192 -118 122 -164 Q106 -174 93 -174 Q75 -174 64 -160.5 Q53 -147 53 -129 Q53 -108 69 -91 Q140 -14 178 50 Q209 101 256 210 Q268 240 291 240 Q309 240 321.5 225 Q334 210 334 192 Z " />
<glyph glyph-name="&amp;#x2d;" unicode="&#x2d;" horiz-adv-x="809" d="M842 300 Q842 266 806 257 Q737 240 634 228 Q547 218 460 209 Q386 199 312 189 Q224 177 163 177 Q130 177 122 180 Q103 186 103 211 Q103 250 134 262 Q191 284 295 297 Q378 306 461 316.5 Q544 327 626 338 Q724 352 792 355 L799 355 Q842 357 842 300 Z " />
<glyph glyph-name="&amp;#x2010;" unicode="&#x2010;" horiz-adv-x="809" d="M842 300 Q842 266 806 257 Q737 240 634 228 Q547 218 460 209 Q386 199 312 189 Q224 177 163 177 Q130 177 122 180 Q103 186 103 211 Q103 250 134 262 Q191 284 295 297 Q378 306 461 316.5 Q544 327 626 338 Q724 352 792 355 L799 355 Q842 357 842 300 Z " />
<glyph glyph-name="period" unicode="&#x2e;" horiz-adv-x="531" d="M470 74 Q470 47 440 38 Q403 26 310 15 Q223 5 177 5 Q134 5 134 59 Q134 96 172 104 Q239 118 428 118 Q470 118 470 74 Z " />
<glyph glyph-name="slash" unicode="&#x2f;" horiz-adv-x="702" d="M877 796 Q877 783 865 767 Q861 761 809 703 Q731 615 666 546 Q664 544 265 104 Q67 -113 28 -113 Q16 -113 3.5 -99 Q-9 -85 -9 -73 Q-9 -62 0 -48 Q5 -42 54 14 Q134 103 204 176 Q341 319 613 617 Q663 672 713 727 Q773 789 822 827 Q838 839 847 839 Q858 839 867.5 824 Q877 809 877 796 Z " />
<glyph glyph-name="zero" unicode="0" horiz-adv-x="865" d="M919 405 Q919 275 793 158 Q686 59 546 14 Q436 -21 323 -21 Q222 -21 152 40 Q79 104 79 203 Q79 328 159 447 Q236 559 358.5 630 Q481 701 604 701 Q845 701 908 476 Q919 440 919 405 Z M830 405 Q830 467 789 521 Q745 578 685 578 Q668 578 635 575.5 Q602 573 586 573 Q573 573 550 581 Q527 589 515 589 Q509 589 505 588 Q392 571 281 450 Q167 327 167 214 Q167 144 227 108 Q276 80 352 80 Q475 80 594.5 140 Q714 200 791 299 Q830 349 830 405 Z " />
<glyph glyph-name="one" unicode="1" horiz-adv-x="415" d="M515 665 Q515 652 509 639 Q400 426 374 359 Q325 228 313 51 Q310 10 271 10 Q242 10 234 39 Q230 52 230 91 Q230 225 290 388 Q300 414 311 440 Q324 472 324 493 Q324 508 313 508 Q300 508 224 456 Q148 404 138 404 Q128 404 121 418 Q115 429 115 441 Q115 468 186 522 Q234 557 285 587 Q306 599 453 699 Q467 709 479 709 Q496 709 505.5 695.5 Q515 682 515 665 Z " />
<glyph glyph-name="two" unicode="2" horiz-adv-x="768" d="M827 233 Q827 193 787 187 Q664 174 418 137 Q255 106 78 -3 Q61 -13 50 -13 Q36 -13 24.5 2 Q13 17 13 32 Q13 47 28 64 Q71 111 143 177 Q203 231 262 285 Q380 396 486 517 Q546 585 546 601 Q546 622 514 622 Q468 622 390 582 Q343 557 303 509 Q291 494 279 494 Q266 494 258.5 505.5 Q251 517 251 530 Q251 539 255 548 Q280 603 368 653 Q453 701 516 701 Q560 701 589.5 675.5 Q619 650 619 606 Q619 561 557 486 Q520 442 429 353 Q344 270 321 240 Q318 235 318 232 Q318 224 335 224 Q352 224 392 233 Q501 256 581 266 Q594 268 685 283 Q757 295 783 295 Q827 295 827 233 Z " />
<glyph glyph-name="three" unicode="3" horiz-adv-x="708" d="M737 367 Q737 256 524 151 Q396 89 208 36 Q138 16 73 16 Q43 16 33 19 Q14 26 14 50 Q14 99 55 102 Q205 114 464 221 Q522 244 580 282 Q661 334 661 370 Q661 394 602 405 Q565 411 524 411 Q477 411 425 403 Q342 388 215 327 Q202 320 193 320 Q179 320 170 337 Q163 351 163 367 Q163 392 191 410 Q215 422 239 434 Q292 461 393 524 Q520 602 520 618 Q520 625 494 625 Q459 625 401 608 Q355 595 309 581 Q304 580 299 580 Q274 580 274 610 Q274 639 299 649 Q367 677 488 697 Q601 716 683 716 Q721 716 721 674 Q721 640 677 613 Q641 591 606 569 Q565 543 541 517 Q538 514 538 511 Q538 500 611 486 Q662 475 696 447 Q737 414 737 367 Z " />
<glyph glyph-name="four" unicode="4" horiz-adv-x="689" d="M752 290 Q752 250 719 244 Q700 240 535 230 Q513 229 503 226 Q484 222 475 212 Q463 198 426 103 Q394 19 377 19 Q362 19 352 30.5 Q342 42 342 57 Q342 74 359.5 125 Q377 176 377 193 Q377 204 373 212 Q367 224 275 224 Q250 224 198.5 222 Q147 220 121 220 Q91 220 91 258 Q91 276 103 288 Q145 322 225 393 Q311 477 398 562 Q500 658 587 711 Q595 716 603 716 Q617 716 625 702 Q633 688 633 673 Q633 668 632 663 Q608 569 539 393 Q526 359 526 348 Q526 327 571 327 Q596 327 645 329.5 Q694 332 718 332 Q752 332 752 290 Z M512 547 Q512 556 506 556 Q493 556 376.5 449.5 Q260 343 260 324 Q260 312 293 312 Q381 312 414 329 Q431 338 465 416 Q491 475 505 518 Q512 538 512 547 Z " />
<glyph glyph-name="five" unicode="5" horiz-adv-x="676" d="M813 635 Q813 594 782 594 Q760 594 715.5 597 Q671 600 649 600 Q468 600 410 552 Q393 538 371 484 Q350 435 350 416 Q350 410 353 407 Q358 400 415 392 Q480 383 490 379 Q534 362 565 322.5 Q596 283 596 237 Q596 188 550 142 Q513 104 459 80 Q373 42 267 11 Q141 -25 69 -25 Q31 -25 31 10 Q31 37 59 43 Q93 48 162 61 Q428 119 514 206 Q530 221 530 235 Q530 272 485 296 Q447 316 408 316 Q313 316 205 236 Q191 226 180 226 Q166 226 157 238 Q148 250 148 264 Q148 285 231.5 392.5 Q315 500 315 529 Q315 538 308.5 552.5 Q302 567 302 576 Q302 597 323 608 Q387 641 496 661 Q593 679 677 679 Q746 679 784 670 Q813 663 813 635 Z " />
<glyph glyph-name="six" unicode="6" horiz-adv-x="667" d="M673 228 Q673 191 654 153 Q610 70 521 21 Q436 -26 340 -26 Q231 -26 169 26 Q102 82 102 188 Q102 282 160 381 Q211 469 292 537 Q436 658 552 697 Q559 699 565 699 Q596 699 596 666 Q596 646 576.5 635.5 Q557 625 519 605 Q247 461 194 282 Q188 261 188 249 Q188 227 201 227 Q215 227 256 273 Q309 334 343 359 Q406 406 474 406 Q551 406 612 355 Q673 304 673 228 Z M588 227 Q588 262 548 289 Q512 314 475 314 Q409 314 331 234 Q253 154 253 91 Q253 63 306 63 Q395 63 465 94 Q548 131 582 202 Q588 215 588 227 Z " />
<glyph glyph-name="seven" unicode="7" horiz-adv-x="701" d="M844 657 Q844 636 830 622 Q813 606 778 581 Q739 554 724 541 Q591 426 457 221 Q421 159 344 44 Q331 27 319 27 Q306 27 298 39.5 Q290 52 290 66 Q290 101 431 315 Q504 425 598 525 Q640 569 640 588 Q640 604 617 604 Q561 604 352 557 Q334 553 236 522 Q143 493 140 493 Q126 493 117.5 506 Q109 519 109 534 Q109 552 130 564 Q233 620 459 662 Q662 699 804 699 Q844 699 844 657 Z " />
<glyph glyph-name="eight" unicode="8" horiz-adv-x="821" d="M919 599 Q919 516 803 444 Q742 405 613 356 Q694 314 694 243 Q694 201 654 159 Q586 86 482.5 41 Q379 -4 280 -4 Q218 -4 181 24 Q140 56 140 116 Q140 171 209 237 Q260 285 327 323 Q234 334 208 341 Q125 362 125 404 Q125 427 141 443 Q198 499 406 589 Q595 672 697 696 Q755 710 818 710 Q865 710 892 679 Q919 648 919 599 Z M832 607 Q832 626 797 626 Q707 626 490 531 Q307 451 307 432 Q307 423 377 411 Q440 400 464 400 Q494 400 579 430 Q638 452 697 474 Q771 500 818 575 Q832 596 832 607 Z M613 239 Q613 269 478 300 Q402 265 334 221 Q229 154 229 114 Q229 89 276 89 Q351 89 453 126 Q526 152 598 217 Q613 229 613 239 Z " />
<glyph glyph-name="nine" unicode="9" horiz-adv-x="746" d="M840 598 Q840 497 725 350 Q618 214 473 112 Q322 5 226 5 Q184 5 184 48 Q184 82 218.5 91.5 Q253 101 320 129 Q527 245 666 415 Q721 481 721 508 Q721 515 715 515 Q709 515 689 496 Q650 460 593 421 Q369 270 229 270 Q115 270 115 361 Q115 461 302 575 Q424 650 582 710 Q648 735 708 733 Q715 738 725 738 Q771 738 807 690 Q840 646 840 598 Z M703 644 Q703 653 686 653 Q673 653 645 646 Q540 620 418 553 Q288 482 221 409 Q193 379 193 367 Q193 358 214 358 Q306 358 455 436 Q594 510 662 584 Q703 628 703 644 Z " />
<glyph glyph-name="colon" unicode="&#x3a;" horiz-adv-x="531" d="M460 330 Q460 303 430 294 Q393 282 300 271 Q213 261 167 261 Q124 261 124 315 Q124 352 162 360 Q229 374 418 374 Q460 374 460 330 Z M470 74 Q470 47 440 38 Q403 26 310 15 Q223 5 177 5 Q134 5 134 59 Q134 96 172 104 Q239 118 428 118 Q470 118 470 74 Z " />
<glyph glyph-name="semicolon" unicode="&#x3b;" horiz-adv-x="531" d="M460 370 Q460 343 430 334 Q393 322 300 311 Q213 301 167 301 Q124 301 124 355 Q124 392 162 400 Q229 414 418 414 Q460 414 460 370 Z M361 192 Q361 185 359 177 Q334 81 280 -12 Q219 -118 149 -164 Q133 -174 120 -174 Q102 -174 91 -160.5 Q80 -147 80 -129 Q80 -108 96 -91 Q167 -14 205 50 Q236 101 283 210 Q295 240 318 240 Q336 240 348.5 225 Q361 210 361 192 Z " />
<glyph glyph-name="less" unicode="&#x3c;" horiz-adv-x="752" d="M846 671 Q846 647 822 636 Q753 611 617 556 Q453 483 338 393 Q223 303 223 287 Q223 273 261 253 Q346 208 447 179 Q573 142 628 98 Q646 84 646 63 Q646 45 634.5 29.5 Q623 14 605 14 Q598 14 588 18 Q539 41 376 101 Q243 149 170 194 Q122 223 122 276 Q122 326 178 377 Q227 414 275 451 Q375 529 530.5 602 Q686 675 812 705 Q819 707 824 707 Q846 707 846 671 Z " />
<glyph glyph-name="equal" unicode="&#x3d;" horiz-adv-x="847" d="M883 435 Q883 401 847 392 Q778 374 675 362 Q588 353 501 344 Q427 333 353 323 Q265 312 204 312 Q171 312 163 314 Q144 320 144 345 Q144 385 175 397 Q232 418 336 431 Q419 440 502 450.5 Q585 461 667 473 Q765 487 833 490 L840 490 Q883 492 883 435 Z M842 215 Q842 181 806 172 Q737 155 634 143 Q547 133 460 124 Q386 114 312 104 Q224 92 163 92 Q130 92 122 95 Q103 101 103 126 Q103 165 134 177 Q191 199 295 212 Q378 221 461 231.5 Q544 242 626 253 Q724 267 792 270 L799 270 Q842 272 842 215 Z " />
<glyph glyph-name="greater" unicode="&#x3e;" horiz-adv-x="762" d="M800 441 Q800 392 743 341 Q695 304 646 267 Q546 189 390 115.5 Q234 42 109 14 Q103 13 98 13 Q75 13 75 48 Q75 72 99 83 Q168 108 304 163 Q470 235 583.5 325 Q697 415 697 432 Q697 457 588 499 Q486 536 384 573 Q275 618 275 652 Q275 669 287 688 Q299 707 315 707 Q323 707 334 701 Q385 676 546 618 Q679 570 752 524 Q800 493 800 441 Z " />
<glyph glyph-name="question" unicode="&#x3f;" horiz-adv-x="797" d="M881 623 Q881 602 865 586 Q794 517 604 388 Q559 357 559 349 Q559 344 566 342.5 Q573 341 584 341 Q600 342 598 342 Q644 342 644 295 Q644 255 606 241 Q547 220 424 202 Q410 199 319 180 Q240 164 225 164 Q187 164 187 219 Q187 252 215 270 Q351 349 487 428 Q710 560 710 592 Q710 614 618 614 Q538 614 400 594 Q347 586 251 558 Q240 555 232 555 Q217 555 208 568 Q199 581 199 597 Q199 616 222 630 Q293 673 419 695 Q521 713 627 713 Q708 713 775 699 Q881 675 881 623 Z M546 48 Q546 21 515 12 Q480 2 383 -10 Q290 -21 248 -21 Q205 -21 205 34 Q205 70 243 78 Q313 92 504 92 Q546 92 546 48 Z " />
<glyph glyph-name="at" unicode="&#x40;" horiz-adv-x="959" d="M1010 558 Q1010 472 968 386 Q926 300 859 247 Q822 219 782 219 Q759 219 726 232 Q693 245 690 245 Q683 245 622.5 211.5 Q562 178 510 178 Q444 178 398 215 Q349 255 349 320 Q349 408 463 521 Q577 634 665 634 Q700 634 735.5 609 Q771 584 771 551 Q771 533 758 517 Q742 393 742 384 Q742 352 745 340 Q751 317 775 317 Q825 317 875 406 Q920 486 920 542 Q920 642 820 662 Q748 675 677 675 Q378 675 261 412 Q235 356 235 304 Q235 204 314 130.5 Q393 57 494 57 Q548 57 609 83 Q644 97 699 130 Q742 156 752 156 Q784 156 784 117 Q784 100 772 84 Q730 27 645 -11 Q564 -47 490 -47 Q346 -47 247.5 57 Q149 161 149 306 Q149 467 269 599 Q384 725 546 761 Q612 776 701 776 Q829 776 909 731 Q1010 675 1010 558 Z M670 502 Q670 534 649 534 Q605 534 522 451 Q439 368 439 321 Q439 271 521 271 Q601 271 643 329 Q654 345 669 483 Q670 495 670 502 Z " />
<glyph glyph-name="A" unicode="A" horiz-adv-x="781" d="M786 52 Q786 -5 735 -5 Q705 -5 693 42 Q686 87 679 131 Q669 181 646 185 Q642 186 632 186 Q580 186 398 144 Q210 100 175 78 Q175 77 127 38 Q93 9 78 9 Q67 9 57.5 19.5 Q48 30 48 41 Q48 50 55 62 Q70 85 178 215 Q227 274 350 442 Q456 587 526 664 Q546 686 571 686 Q613 686 670 534 Q786 230 786 52 Z M633 311 Q633 325 610 398 Q588 465 578 487 Q567 514 549 514 Q531 514 487 460 Q459 424 432 388 Q399 347 366 307 Q314 241 314 228 Q314 219 326 219 Q339 219 368 227 Q491 260 583 277 Q603 281 611 283 Q629 289 632 299 Q633 304 633 311 Z " />
<glyph glyph-name="B" unicode="B" horiz-adv-x="787" d="M882 598 Q882 576 872 553 Q826 455 678 380 Q659 371 621 352 Q604 343 604 327 Q604 319 639 302 Q683 280 704 258 Q739 221 739 167 Q739 54 558 3 Q440 -31 287 -31 Q225 -31 166 -14 Q83 10 83 55 Q83 96 111 109 Q114 177 129 249 Q172 446 190 547 Q194 581 197 615 Q202 657 213.5 680.5 Q225 704 248 704 Q277 704 284 671 Q290 662 296.5 653.5 Q303 645 314 645 Q327 645 354 654 Q540 713 701 713 Q882 713 882 598 Z M790 595 Q790 612 716 612 Q643 612 574 601 Q492 588 410 566 Q286 532 270 502 Q261 486 248.5 432 Q236 378 236 359 Q236 331 262 331 Q282 331 331 346 Q447 381 558 432 Q698 495 762 557 Q790 584 790 595 Z M651 166 Q651 179 629 195 Q574 235 418 235 L362 235 Q313 235 285.5 229.5 Q258 224 238 223 Q210 220 197 174 Q187 141 187 103 Q187 69 317 69 Q498 69 629 141 Q651 153 651 166 Z " />
<glyph glyph-name="C" unicode="C" horiz-adv-x="874" d="M895 222 Q895 207 887 193 Q832 96 657 17 Q493 -59 370 -59 Q253 -59 180 1 Q102 65 102 180 Q102 318 199 453 Q290 578 433 659 Q576 740 711 740 Q861 740 861 675 Q861 654 847 638.5 Q833 623 813 623 Q806 623 797 625 Q733 642 690 642 Q622 642 547 608 Q405 542 309 441 Q191 317 191 184 Q191 118 234 78.5 Q277 39 344 39 Q507 39 686 139 Q748 173 814 252 Q832 273 850 273 Q869 273 882 257 Q895 241 895 222 Z " />
<glyph glyph-name="D" unicode="D" horiz-adv-x="763" d="M883 552 Q883 429 740 293 Q620 179 428 79 Q258 -9 123 -42 Q110 -45 101 -45 Q65 -45 65 16 Q65 45 91 143 Q147 351 173 535 Q175 552 180 584 Q186 610 208 624 Q283 671 412 700 Q530 727 630 727 Q723 727 796 686 Q883 637 883 552 Z M773 536 Q773 578 701 597 Q655 608 594 608 Q526 608 432 591 Q315 570 284 539 Q266 520 257 474 Q231 340 184 155 Q182 145 182 138 Q182 115 201 115 Q248 115 380 176 Q496 230 607 318 Q744 427 771 519 Q773 527 773 536 Z " />
<glyph glyph-name="E" unicode="E" horiz-adv-x="769" d="M888 618 Q888 598 875 580 Q861 559 842 559 Q832 559 818 571 Q770 610 616 610 Q475 610 370 570 Q328 554 300 511.5 Q272 469 272 424 Q272 408 312 408 Q325 408 345 410 Q372 413 379 414 Q633 429 688 429 Q721 429 730 424 Q746 415 746 385 Q746 344 713 340 Q658 333 574 328 Q505 325 436 321 Q388 319 341 316 Q284 313 247 302 Q222 294 207 239 Q195 197 195 160 Q195 124 217 112 Q233 103 273 103 Q332 103 462 132 Q575 157 651 182 Q662 186 669 186 Q685 186 694 171 Q703 156 703 139 Q703 119 681 105 Q605 60 486 25 Q364 -11 278 -11 Q202 -11 152 20 Q92 57 92 128 Q92 219 136 338 L135 342 Q135 361 150 375 Q168 426 185 477 Q208 537 236 572 Q332 692 588 692 Q691 692 815 669 Q856 661 856 661 Q880 653 886 634 Q888 627 888 618 Z " />
<glyph glyph-name="F" unicode="F" horiz-adv-x="763" d="M869 593 Q869 571 855 550 Q841 529 820 529 Q811 529 803 539 Q791 552 788 554 L787 556 Q727 582 628 582 Q521 582 404 556 Q310 535 271 447 Q246 392 246 371 Q246 348 292 348 Q291 348 376 355 Q593 371 699 371 Q729 371 739 365 Q752 356 752 327 Q752 286 719 282 Q713 281 582 272 L294 251 Q243 247 225 232.5 Q207 218 192 158 Q179 106 179 76 Q179 73 180 66.5 Q181 60 181 56 Q181 41 169 27.5 Q157 14 142 14 Q93 14 93 114 Q93 198 130 343 Q171 501 216 555 Q307 665 572 665 Q709 665 816 633 Q823 635 830 635 Q869 635 869 593 Z " />
<glyph glyph-name="G" unicode="G" horiz-adv-x="872" d="M888 248 Q888 222 868 196 Q828 144 792 115 Q703 44 584 -2 Q459 -51 352 -51 Q232 -51 161 6 Q83 68 83 184 Q83 321 182 454 Q272 576 415 655 Q558 734 692 734 Q741 734 782 723 Q842 708 842 675 Q842 654 830 635 Q818 616 798 616 Q790 616 778 619 Q716 635 672 635 Q601 635 525 601 Q388 538 291 438 Q172 317 172 190 Q172 123 213.5 84 Q255 45 323 45 Q464 45 625 124 Q751 185 751 222 Q751 249 635 249 Q502 249 362 203 Q348 198 339 198 Q320 198 307 218 Q297 235 297 255 Q297 304 439 329 Q533 345 623 345 Q731 345 826 340 Q888 337 888 248 Z " />
<glyph glyph-name="H" unicode="H" horiz-adv-x="815" d="M878 656 Q878 546 814 317 L815 309 Q816 291 803 274 Q780 183 734 0 Q724 -41 689 -41 Q647 -41 647 1 Q647 44 660 107 Q671 159 682 211 Q685 224 685 232 Q685 253 658 257 Q654 258 613 258 Q362 258 244 227 Q219 220 209 156 Q201 98 193 41 Q178 -19 140 -19 Q94 -19 96 25 L96 32 Q107 335 208 593 Q224 632 226 636 Q240 661 262 661 Q281 661 291.5 645 Q302 629 302 609 Q302 567 273 484.5 Q244 402 244 359 Q244 346 269 346 Q278 346 297 349 Q394 362 530 362 Q555 362 603.5 360 Q652 358 676 358 Q701 358 713 369.5 Q725 381 732 407 Q752 502 796 692 L797 692 Q806 722 836 722 Q878 722 878 656 Z " />
<glyph glyph-name="I" unicode="I" horiz-adv-x="785" d="M839 666 Q839 639 810 633 Q748 624 625 604 Q565 593 557 569 Q543 529 528 464 Q509 375 504 358 Q492 315 468 228 Q458 188 459 170 L459 165 Q462 139 537 136 Q597 136 715 128 Q753 123 753 86 Q753 66 739.5 50.5 Q726 35 706 35 Q488 35 408 31 Q366 29 262 14 Q169 1 116 1 Q66 1 66 56 Q66 79 92 91 Q125 107 209 118 Q287 129 324 151 Q343 162 362 226 Q374 270 386 314 Q401 365 416 416 Q434 478 437 517 Q439 552 437 559 Q433 568 395 571 Q368 573 322 572 Q254 571 269 571 Q225 571 225 610 Q225 643 255 648 Q293 651 370 658 L462 668 Q480 683 515 683 Q525 683 535 678 Q601 687 667 696 Q746 707 799 707 Q839 707 839 666 Z " />
<glyph glyph-name="J" unicode="J" horiz-adv-x="842" d="M976 643 Q976 616 937 611 Q889 604 877.5 592 Q866 580 864 535 Q854 323 730 167 Q594 -5 389 -5 Q364 -5 340 -3 Q239 9 167.5 89 Q96 169 96 271 Q96 363 162 406 Q177 416 189 416 Q206 416 216 402 Q226 388 226 370 Q226 357 220 345 L220 346 Q192 284 192 263 Q192 249 197 233 Q216 172 268.5 134 Q321 96 386 96 Q486 96 575 155 Q664 214 708 306 Q733 358 753 424 Q777 502 777 547 Q777 579 739 579 Q710 579 653 569 Q582 557 564 556 Q495 549 448 549 Q401 549 392 551 Q363 558 363 589 Q363 624 393 629 Q439 636 530 643 Q621 650 665 657 Q862 687 937 687 Q976 687 976 643 Z " />
<glyph glyph-name="K" unicode="K" horiz-adv-x="736" d="M817 642 Q817 633 815 625 Q788 513 651 414 Q568 353 407 277 Q376 262 376 252 Q376 242 407 231 Q690 126 690 53 Q690 35 676.5 14 Q663 -7 647 -7 Q635 -7 619 7 Q563 56 517 77.5 Q471 99 369 136 Q252 178 227 178 Q204 178 189.5 92 Q175 6 150 6 Q135 6 123.5 19 Q112 32 112 47 Q112 126 135 234 Q130 245 130 256 Q130 277 148 295 Q164 367 192 511 Q198 557 203 603 Q216 669 249 669 Q289 669 289 603 Q289 561 269 480.5 Q249 400 249 359 Q249 347 265 347 Q277 347 299 354 Q493 412 648 545 Q692 583 745 667 Q757 685 779 685 Q817 685 817 642 Z " />
<glyph glyph-name="L" unicode="L" horiz-adv-x="693" d="M704 151 Q704 125 685 111 Q623 67 506.5 32.5 Q390 -2 310 -2 Q207 -2 161 24 Q98 58 98 153 Q98 193 111 237 Q130 298 161 378 Q188 448 215 518 Q247 600 276 656 Q291 685 315 685 Q331 685 342 672 Q353 659 353 642 Q353 625 331 588 Q301 537 299 532 Q274 474 234 347 Q190 206 190 164 Q190 130 216 118 Q234 109 273 109 Q357 109 471 138 Q567 164 664 191 Q672 193 678 193 Q704 193 704 151 Z " />
<glyph glyph-name="M" unicode="M" horiz-adv-x="973" d="M956 24 Q956 -22 914 -22 Q876 -22 866 20 Q862 41 850 130 Q841 196 820 329 Q791 486 772 486 Q769 486 765 482 Q748 465 709 392 Q684 341 658 290 Q609 195 549 96 Q542 84 533 51 Q525 22 514 9 Q491 -19 448 -19 Q407 -19 398 18 Q385 75 375 170 Q362 291 357.5 323 Q353 355 340 419 Q335 440 327 440 Q313 440 302 420 Q293 397 273 352 Q225 252 178 152 Q96 -7 63 -7 Q51 -7 41 1.5 Q31 10 31 21 Q31 28 34 38 Q55 98 97 188 Q158 319 165 335 Q197 411 228 487 Q266 577 297 635 Q316 669 345 669 Q371 669 386 639 Q422 572 444 438 Q460 333 475 227 Q481 194 497 194 Q506 194 522 222 Q553 276 595 364 Q632 444 669 524 Q713 619 751 679 Q766 702 794 702 Q816 702 828 682 Q877 603 919 363 Q956 149 956 24 Z " />
<glyph glyph-name="N" unicode="N" horiz-adv-x="791" d="M809 649 Q809 499 791 346 Q783 271 775 195 Q765 106 752 46 Q748 26 730.5 7.5 Q713 -11 694 -11 Q681 -11 665 3 Q482 169 340 460 Q320 500 308 500 Q295 500 251 394 Q173 202 173 107 Q173 71 190 43 Q207 15 207 4 Q207 -12 198 -26 Q189 -40 175 -40 Q152 -40 126 -13 Q104 11 96 36 Q85 68 85 113 Q85 252 199 508 Q224 568 279 686 Q297 720 335 720 Q359 720 370 689 Q392 628 413 566 Q439 497 467 448 Q536 324 613 233 Q635 206 647 206 Q663 206 670 244 Q682 313 695.5 452 Q709 591 721 659 Q728 703 761 703 Q782 703 795.5 686.5 Q809 670 809 649 Z " />
<glyph glyph-name="O" unicode="O" horiz-adv-x="865" d="M919 405 Q919 275 793 158 Q686 59 546 14 Q436 -21 323 -21 Q222 -21 152 40 Q79 104 79 203 Q79 328 159 447 Q236 559 358.5 630 Q481 701 604 701 Q845 701 908 476 Q919 440 919 405 Z M830 405 Q830 467 789 521 Q745 578 685 578 Q668 578 635 575.5 Q602 573 586 573 Q573 573 550 581 Q527 589 515 589 Q509 589 505 588 Q392 571 281 450 Q167 327 167 214 Q167 144 227 108 Q276 80 352 80 Q475 80 594.5 140 Q714 200 791 299 Q830 349 830 405 Z " />
<glyph glyph-name="P" unicode="P" horiz-adv-x="775" d="M877 555 Q877 462 746 386 Q681 349 532 297 Q426 256 210 183 Q185 176 171 90 Q158 8 133 8 Q117 8 106 20.5 Q95 33 95 49 Q95 124 111 203 Q134 306 175 514 Q175 514 182 581 Q186 623 197.5 647.5 Q209 672 228 672 Q245 672 276.5 655.5 Q308 639 324 639 Q335 639 361 642 Q597 669 717 669 Q776 669 822 642 Q877 610 877 555 Z M768 535 Q768 567 660 567 Q632 567 607 565 Q457 552 436 549 Q305 535 281.5 518 Q258 501 240 432 Q224 373 224 334 Q224 311 239 311 Q303 311 663 458 Q694 470 725 489 Q768 517 768 535 Z " />
<glyph glyph-name="Q" unicode="Q" horiz-adv-x="865" d="M924 419 Q924 336 869 257 Q835 209 767 148 Q712 99 712 89 Q712 75 726 49.5 Q740 24 740 11 Q740 -5 724 -21 Q708 -37 692 -37 Q677 -37 654.5 2 Q632 41 608 41 Q593 41 551 28 Q439 -7 347 -7 Q238 -7 164 49 Q84 111 84 218 Q84 242 89 270 Q121 451 273.5 583 Q426 715 609 715 Q847 715 914 490 Q924 455 924 419 Z M836 419 Q836 481 795 534 Q751 592 691 592 Q674 592 641 589.5 Q608 587 592 587 Q578 587 554 595.5 Q530 604 518 604 Q514 604 510 603 Q395 582 286 464 Q173 343 173 230 Q173 162 225 127 Q270 96 341 96 Q393 96 458 106 Q553 121 553 147 Q553 170 507 250 Q461 330 461 363 Q461 379 474.5 392 Q488 405 504 405 Q520 405 534 380 Q561 328 588 275 Q633 196 658 196 Q679 196 731 244 Q771 281 796 313 Q836 363 836 419 Z " />
<glyph glyph-name="R" unicode="R" horiz-adv-x="778" d="M883 556 Q883 484 797 421 Q733 374 613 328 Q528 297 443 267 Q386 246 386 235 Q386 225 463 197 Q564 160 605 139 Q681 99 681 61 Q681 43 667 22.5 Q653 2 637 2 Q624 2 608 15 Q550 59 501 77.5 Q452 96 353 128 Q233 166 210 166 Q189 166 176 89.5 Q163 13 138 13 Q123 13 112 26 Q101 39 101 54 Q101 130 121 223 Q120 228 120 233 Q120 248 129 262 Q148 347 181 519 Q184 553 188 586 Q193 628 204 652.5 Q215 677 236 677 Q254 677 285.5 660 Q317 643 330 643 Q340 643 367 647 Q562 673 724 673 Q785 673 830 646 Q883 613 883 556 Z M773 526 Q779 532 778 544 Q777 556 767 560 Q745 571 723 572 Q732 571 677 571 Q632 571 428 551 Q385 548 302 534 Q268 525 260 496 Q230 396 230 329 Q230 314 247 314 Q279 314 428 369 Q515 401 602 434 Q731 486 773 526 Z " />
<glyph glyph-name="S" unicode="S" horiz-adv-x="836" d="M910 667 Q910 653 901 641 Q892 629 878 629 Q865 629 853 642 Q849 642 835 647.5 Q821 653 806 653 Q740 653 619 605 Q518 564 442 518 Q342 457 342 435 Q342 422 369 422 Q380 422 466 435 Q641 461 715 461 Q873 461 873 343 Q873 263 754 156 Q672 82 564 19 Q437 -55 288 -55 Q206 -55 144 -21 Q67 20 67 95 Q67 135 91 168 Q93 171 121 191 Q137 203 147 203 Q161 203 173.5 187 Q186 171 186 156 Q186 146 177.5 131 Q169 116 169 109 Q169 100 181 90 Q215 59 299 59 Q526 59 740 275 Q789 325 789 351 Q789 375 726 375 Q592 375 357 324 Q320 315 284 306 Q241 297 209 297 Q140 297 140 344 Q140 360 150 374 Q268 556 526 663 Q701 736 801 736 Q840 736 871 721 Q910 702 910 667 Z " />
<glyph glyph-name="T" unicode="T" horiz-adv-x="606" d="M736 652 Q736 627 708 621 Q653 615 545 596 Q497 584 486 481 Q479 422 459 328 Q433 204 428 175 Q421 125 405 27 Q396 -15 363 -15 Q316 -15 316 57 Q316 139 346 274 Q381 437 387 491 Q388 507 388 517 Q388 566 341 566 Q315 566 264 562 Q213 558 187 558 Q153 558 143 562 Q124 569 124 598 Q124 633 154 637 Q244 645 425 666 Q630 696 698 696 Q736 696 736 652 Z " />
<glyph glyph-name="U" unicode="U" horiz-adv-x="823" d="M865 654 L864 649 Q861 589 844 492 Q823 373 818 336 Q818 334 804 175 Q795 71 781 18 Q772 -17 746 -17 Q708 -17 708 39 Q708 46 709 59 Q710 72 710 76 Q710 123 684 123 Q669 123 639 107 Q524 45 464 20 Q373 -19 276 -37 Q255 -40 238 -40 Q170 -40 130 16 Q94 66 94 137 Q94 183 132 325 Q173 479 218 588 Q274 721 314 721 Q333 721 346 704 Q359 687 359 668 Q359 654 351 640 Q326 595 282 501 Q188 255 188 134 Q188 62 247 62 Q301 62 379 89 Q446 113 557 171 Q690 241 709 276 Q723 300 728 331 Q740 417 751 502 Q768 609 795 667 Q807 691 828 691 Q844 691 854.5 680 Q865 669 865 654 Z " />
<glyph glyph-name="V" unicode="V" horiz-adv-x="668" d="M785 637 Q785 627 780 618 Q768 595 676 465 Q621 387 574.5 311 Q528 235 482 159 Q426 67 382 16 Q364 -5 339 -5 Q286 -5 241 152 Q196 309 179 386 Q149 522 149 624 L149 629 Q149 651 163.5 669.5 Q178 688 199 688 Q229 688 239 646 Q242 634 262 519 Q286 378 311 291 Q342 183 357 183 Q376 183 393 205 Q413 234 452 293 Q561 457 585 491 Q678 621 736 664 Q747 672 756 672 Q785 672 785 637 Z " />
<glyph glyph-name="W" unicode="W" horiz-adv-x="952" d="M1081 647 Q1081 641 1078 635 Q1067 606 995 476 Q956 404 913 317 Q876 237 839 158 Q792 57 756 6 Q742 -16 713 -16 Q693 -16 680 3 Q648 54 623 154 Q615 188 590 315 Q584 355 577 395 Q564 460 554 460 Q551 460 547 456 Q530 436 480 318 Q449 242 418 166 Q381 77 348 18 Q330 -15 299 -15 Q275 -15 259 14 Q221 88 187 299 Q156 491 156 604 Q156 676 200 676 Q237 676 246 635 Q252 610 273 425 Q290 274 314 230 Q319 223 324 223 Q339 223 380 314 Q422 401 464 488 Q527 623 527 652 Q527 697 581 697 Q633 697 642 656 Q648 634 664 503.5 Q680 373 709 251 Q720 208 736 208 Q752 208 769 237 Q835 361 901 484 Q1012 684 1049 684 Q1062 684 1071.5 672 Q1081 660 1081 647 Z " />
<glyph glyph-name="X" unicode="X" horiz-adv-x="752" d="M852 629 Q852 616 838 604 Q742 527 645 451 Q489 324 489 301 Q489 256 692 96 Q713 80 713 62 Q713 44 698 25.5 Q683 7 665 7 Q630 7 545 81 Q488 132 437 187 Q414 213 400 213 Q386 213 299 120 Q212 27 190 27 Q172 27 159.5 43 Q147 59 147 77 Q147 106 238 200 Q329 294 329 316 Q329 331 251.5 464.5 Q174 598 174 626 Q174 644 187 658.5 Q200 673 218 673 Q250 673 325 538 Q400 403 426 403 Q437 403 452 415 Q536 484 620 553 Q720 631 804 666 Q814 670 820 670 Q833 670 842.5 656.5 Q852 643 852 629 Z " />
<glyph glyph-name="Y" unicode="Y" horiz-adv-x="686" d="M834 663 Q834 650 824 636 Q801 604 760 559 Q725 523 690 487 Q625 414 567 329 Q527 270 469 165 Q400 43 373 0 Q359 -23 342 -23 Q323 -23 307 -7.5 Q291 8 291 27 Q291 51 322.5 105.5 Q354 160 354 186 Q354 205 332 239 Q295 295 226 410 Q168 515 146 596 Q145 601 145 607 Q145 623 155.5 639 Q166 655 182 655 Q195 655 206 638 Q258 548 309 457 Q393 310 416 310 Q432 310 464 355 Q483 385 503 415 Q663 635 790 698 Q802 704 809 704 Q834 704 834 663 Z " />
<glyph glyph-name="Z" unicode="Z" horiz-adv-x="833" d="M903 557 Q903 535 879 523 Q815 497 689 443 Q560 381 433 309 Q228 193 228 152 Q228 114 317 114 Q404 114 524 157 Q579 176 721 240 Q736 247 746 247 Q765 247 777 225 Q787 207 787 186 Q787 161 760 144 Q581 36 378 13 Q341 9 309 9 Q238 9 167 38 Q77 75 77 135 Q77 198 312 343 Q480 447 635 520 Q689 545 689 559 Q689 583 564 583 Q503 583 402 572 Q281 559 240 557 L233 557 Q206 555 206 590 Q206 612 231 620 Q383 671 582 671 Q785 671 878 608 Q903 591 903 557 Z " />
<glyph glyph-name="bracketleft" unicode="&#x5b;" horiz-adv-x="470" d="M470 810 Q470 777 412 775 Q342 774 327 758 Q318 749 316 727 Q314 711 315 685 Q317 647 317 649 Q317 519 279 344 Q242 194 206 44 Q197 9 197 -9 Q197 -35 219 -35 Q250 -35 314 -19 Q378 -3 412 -3 Q465 -3 465 -48 Q465 -85 431 -93 Q355 -109 344 -112 Q296 -124 259 -140 Q117 -199 79 -199 Q60 -199 49 -180 Q40 -164 40 -143 Q40 -124 57 -107 Q98 -66 109 -8 Q147 159 186 326 Q233 536 233 663 Q233 702 230 728 Q228 736 222 761 Q216 782 216 795 Q216 833 247 839 Q285 846 357 846 Q427 846 426 846 Q470 841 470 810 Z " />
<glyph glyph-name="backslash" unicode="&#x5c;" horiz-adv-x="863" d="M925 -73 Q925 -85 912.5 -99 Q900 -113 888 -113 Q848 -113 651 104 Q518 252 249 546 Q184 615 106 703 Q86 723 50 767 Q39 783 39 796 Q39 809 48 824 Q57 839 69 839 Q78 839 93 827 Q151 783 303 617 Q438 468 711 176 Q782 103 861 14 Q881 -6 915 -48 Q925 -62 925 -73 Z " />
<glyph glyph-name="bracketright" unicode="&#x5d;" horiz-adv-x="479" d="M566 790 Q566 770 549 753 Q507 710 496 653 Q457 483 418 313 Q371 106 371 -30 Q371 -51 380 -91.5 Q389 -132 389 -152 Q389 -187 359 -193 Q322 -201 248 -201 Q185 -201 160.5 -196 Q136 -191 136 -164 Q136 -131 194 -129 Q264 -126 276.5 -113 Q289 -100 290 -61 Q289 -111 289 -5 Q289 99 313 230 Q325 294 365 461 Q378 509 391 557 Q406 615 406 655 Q406 682 386 682 Q356 682 294 664.5 Q232 647 200 647 Q142 647 142 694 Q142 732 175 739 Q250 756 262 758 Q309 770 346 786 Q489 845 527 845 Q546 845 556 827.5 Q566 810 566 790 Z " />
<glyph glyph-name="asciicircum" unicode="&#x5e;" horiz-adv-x="569" d="M641 528 Q641 515 632 504.5 Q623 494 610 494 Q585 494 532 585 Q479 676 445 676 Q418 676 316.5 589.5 Q215 503 198 503 Q167 503 167 542 Q167 560 180 574 Q220 621 305 681 Q337 703 430 789 Q440 799 451 799 Q479 799 516 751 Q545 714 562 677 Q576 645 634 551 Q641 539 641 528 Z " />
<glyph glyph-name="underscore" unicode="&#x5f;" horiz-adv-x="809" d="M782 21 Q782 -13 746 -22 Q677 -39 574 -51 Q487 -61 400 -70 Q326 -80 252 -90 Q164 -102 103 -102 Q70 -102 62 -99 Q43 -93 43 -68 Q43 -29 74 -17 Q131 5 235 18 Q318 27 401 37.5 Q484 48 566 59 Q664 73 732 76 L739 76 Q782 78 782 21 Z " />
<glyph glyph-name="grave" unicode="&#x60;" horiz-adv-x="268" d="M343 475 Q320 475 304 486 Q267 511 194 609 Q117 712 90 779 Q85 790 98 805 Q112 824 143 824 Q157 824 168 820 Q188 812 197 793 Q231 717 278 656 Q285 647 384 534 Q397 519 397 509 Q397 493 377 483 Q361 475 343 475 Z " />
<glyph glyph-name="a" unicode="a" horiz-adv-x="781" d="M786 52 Q786 -5 735 -5 Q705 -5 693 42 Q686 87 679 131 Q669 181 646 185 Q642 186 632 186 Q580 186 398 144 Q210 100 175 78 Q175 77 127 38 Q93 9 78 9 Q67 9 57.5 19.5 Q48 30 48 41 Q48 50 55 62 Q70 85 178 215 Q227 274 350 442 Q456 587 526 664 Q546 686 571 686 Q613 686 670 534 Q786 230 786 52 Z M633 311 Q633 325 610 398 Q588 465 578 487 Q567 514 549 514 Q531 514 487 460 Q459 424 432 388 Q399 347 366 307 Q314 241 314 228 Q314 219 326 219 Q339 219 368 227 Q491 260 583 277 Q603 281 611 283 Q629 289 632 299 Q633 304 633 311 Z " />
<glyph glyph-name="b" unicode="b" horiz-adv-x="787" d="M882 598 Q882 576 872 553 Q826 455 678 380 Q659 371 621 352 Q604 343 604 327 Q604 319 639 302 Q683 280 704 258 Q739 221 739 167 Q739 54 558 3 Q440 -31 287 -31 Q225 -31 166 -14 Q83 10 83 55 Q83 96 111 109 Q114 177 129 249 Q172 446 190 547 Q194 581 197 615 Q202 657 213.5 680.5 Q225 704 248 704 Q277 704 284 671 Q290 662 296.5 653.5 Q303 645 314 645 Q327 645 354 654 Q540 713 701 713 Q882 713 882 598 Z M790 595 Q790 612 716 612 Q643 612 574 601 Q492 588 410 566 Q286 532 270 502 Q261 486 248.5 432 Q236 378 236 359 Q236 331 262 331 Q282 331 331 346 Q447 381 558 432 Q698 495 762 557 Q790 584 790 595 Z M651 166 Q651 179 629 195 Q574 235 418 235 L362 235 Q313 235 285.5 229.5 Q258 224 238 223 Q210 220 197 174 Q187 141 187 103 Q187 69 317 69 Q498 69 629 141 Q651 153 651 166 Z " />
<glyph glyph-name="c" unicode="c" horiz-adv-x="841" d="M878 222 Q878 207 870 193 Q815 96 640 17 Q476 -59 353 -59 Q236 -59 163 1 Q85 65 85 180 Q85 318 182 453 Q273 578 416 659 Q559 740 694 740 Q844 740 844 675 Q844 654 830 638.5 Q816 623 796 623 Q789 623 780 625 Q716 642 673 642 Q605 642 530 608 Q388 542 292 441 Q174 317 174 184 Q174 118 217 78.5 Q260 39 327 39 Q490 39 669 139 Q731 173 797 252 Q815 273 833 273 Q852 273 865 257 Q878 241 878 222 Z " />
<glyph glyph-name="d" unicode="d" horiz-adv-x="763" d="M883 552 Q883 429 740 293 Q620 179 428 79 Q258 -9 123 -42 Q110 -45 101 -45 Q65 -45 65 16 Q65 45 91 143 Q147 351 173 535 Q175 552 180 584 Q186 610 208 624 Q283 671 412 700 Q530 727 630 727 Q723 727 796 686 Q883 637 883 552 Z M773 536 Q773 578 701 597 Q655 608 594 608 Q526 608 432 591 Q315 570 284 539 Q266 520 257 474 Q231 340 184 155 Q182 145 182 138 Q182 115 201 115 Q248 115 380 176 Q496 230 607 318 Q744 427 771 519 Q773 527 773 536 Z " />
<glyph glyph-name="e" unicode="e" horiz-adv-x="786" d="M888 618 Q888 598 875 580 Q861 559 842 559 Q832 559 818 571 Q770 610 616 610 Q475 610 370 570 Q328 554 300 511.5 Q272 469 272 424 Q272 408 312 408 Q325 408 345 410 Q372 413 379 414 Q633 429 688 429 Q721 429 730 424 Q746 415 746 385 Q746 344 713 340 Q658 333 574 328 Q505 325 436 321 Q388 319 341 316 Q284 313 247 302 Q222 294 207 239 Q195 197 195 160 Q195 124 217 112 Q233 103 273 103 Q332 103 462 132 Q575 157 651 182 Q662 186 669 186 Q685 186 694 171 Q703 156 703 139 Q703 119 681 105 Q605 60 486 25 Q364 -11 278 -11 Q202 -11 152 20 Q92 57 92 128 Q92 219 136 338 L135 342 Q135 361 150 375 Q168 426 185 477 Q208 537 236 572 Q332 692 588 692 Q691 692 815 669 Q856 661 856 661 Q880 653 886 634 Q888 627 888 618 Z " />
<glyph glyph-name="f" unicode="f" horiz-adv-x="763" d="M869 593 Q869 571 855 550 Q841 529 820 529 Q811 529 803 539 Q791 552 788 554 L787 556 Q727 582 628 582 Q522 582 404 556 Q310 535 271 447 Q246 392 246 371 Q246 348 292 348 Q291 348 376 355 Q593 371 699 371 Q729 371 739 365 Q752 356 752 327 Q752 286 719 282 Q713 281 582 272 L294 251 Q243 247 225 232.5 Q207 218 192 158 Q179 106 179 76 Q179 73 180 66.5 Q181 60 181 56 Q181 41 169 27.5 Q157 14 142 14 Q93 14 93 114 Q93 198 130 343 Q171 501 216 555 Q307 665 572 665 Q709 665 816 633 Q823 635 830 635 Q869 635 869 593 Z " />
<glyph glyph-name="g" unicode="g" horiz-adv-x="872" d="M888 248 Q888 222 868 196 Q828 144 792 115 Q703 44 584 -2 Q459 -51 352 -51 Q232 -51 161 6 Q83 68 83 184 Q83 321 182 454 Q272 576 415 655 Q558 734 692 734 Q741 734 782 723 Q842 708 842 675 Q842 654 830 635 Q818 616 798 616 Q790 616 778 619 Q716 635 672 635 Q601 635 525 601 Q388 538 291 438 Q172 317 172 190 Q172 123 213.5 84 Q255 45 323 45 Q464 45 625 124 Q751 185 751 222 Q751 249 635 249 Q502 249 362 203 Q348 198 339 198 Q320 198 307 218 Q297 235 297 255 Q297 304 439 329 Q533 345 623 345 Q731 345 826 340 Q888 337 888 248 Z " />
<glyph glyph-name="h" unicode="h" horiz-adv-x="815" d="M878 656 Q878 546 814 317 L815 309 Q816 291 803 274 Q780 183 734 0 Q724 -41 689 -41 Q647 -41 647 1 Q647 44 660 107 Q671 159 682 211 Q685 224 685 232 Q685 253 658 257 Q654 258 613 258 Q362 258 244 227 Q219 220 209 156 Q201 98 193 41 Q178 -19 140 -19 Q94 -19 96 25 L96 32 Q107 335 208 593 Q224 632 226 636 Q240 661 262 661 Q281 661 291.5 645 Q302 629 302 609 Q302 567 273 484.5 Q244 402 244 359 Q244 346 269 346 Q278 346 297 349 Q394 362 530 362 Q555 362 603.5 360 Q652 358 676 358 Q701 358 713 369.5 Q725 381 732 407 Q752 502 796 692 L797 692 Q806 722 836 722 Q878 722 878 656 Z " />
<glyph glyph-name="i" unicode="i" horiz-adv-x="276" d="M320 618 Q320 530 288 402 Q259 296 230 190 Q219 141 194 44 Q181 1 145 1 Q106 1 106 48 Q106 114 128 206 Q149 284 170 361 Q191 453 234 638 Q244 679 284 679 Q320 679 320 618 Z " />
<glyph glyph-name="j" unicode="j" horiz-adv-x="842" d="M976 643 Q976 616 937 611 Q889 604 877.5 592 Q866 580 864 535 Q854 323 730 167 Q594 -5 389 -5 Q364 -5 340 -3 Q239 9 167.5 89 Q96 169 96 271 Q96 363 162 406 Q177 416 189 416 Q206 416 216 402 Q226 388 226 370 Q226 357 220 345 L220 346 Q192 284 192 263 Q192 249 197 233 Q216 172 268.5 134 Q321 96 386 96 Q486 96 575 155 Q664 214 708 306 Q733 358 753 424 Q777 502 777 547 Q777 579 739 579 Q710 579 653 569 Q582 557 564 556 Q495 549 448 549 Q401 549 392 551 Q363 558 363 589 Q363 624 393 629 Q439 636 530 643 Q621 650 665 657 Q862 687 937 687 Q976 687 976 643 Z " />
<glyph glyph-name="k" unicode="k" horiz-adv-x="736" d="M817 642 Q817 633 815 625 Q788 513 651 414 Q568 353 407 277 Q376 262 376 252 Q376 242 407 231 Q690 126 690 53 Q690 35 676.5 14 Q663 -7 647 -7 Q635 -7 619 7 Q563 56 517 77.5 Q471 99 369 136 Q252 178 227 178 Q204 178 189.5 92 Q175 6 150 6 Q135 6 123.5 19 Q112 32 112 47 Q112 126 135 234 Q130 245 130 256 Q130 277 148 295 Q164 367 192 511 Q198 557 203 603 Q216 669 249 669 Q289 669 289 603 Q289 561 269 480.5 Q249 400 249 359 Q249 347 265 347 Q277 347 299 354 Q493 412 648 545 Q692 583 745 667 Q757 685 779 685 Q817 685 817 642 Z " />
<glyph glyph-name="l" unicode="l" horiz-adv-x="693" d="M704 151 Q704 125 685 111 Q623 67 506.5 32.5 Q390 -2 310 -2 Q207 -2 161 24 Q98 58 98 153 Q98 193 111 237 Q130 298 161 378 Q188 448 215 518 Q247 600 276 656 Q291 685 315 685 Q331 685 342 672 Q353 659 353 642 Q353 625 331 588 Q301 537 299 532 Q274 474 234 347 Q190 206 190 164 Q190 130 216 118 Q234 109 273 109 Q357 109 471 138 Q567 164 664 191 Q672 193 678 193 Q704 193 704 151 Z " />
<glyph glyph-name="m" unicode="m" horiz-adv-x="973" d="M956 24 Q956 -22 914 -22 Q876 -22 866 20 Q862 41 850 130 Q841 196 820 329 Q791 486 772 486 Q769 486 765 482 Q748 465 709 392 Q684 341 658 290 Q609 195 549 96 Q542 84 533 51 Q525 22 514 9 Q491 -19 448 -19 Q407 -19 398 18 Q385 75 375 170 Q362 291 357.5 323 Q353 355 340 419 Q335 440 327 440 Q313 440 302 420 Q293 397 273 352 Q225 252 178 152 Q96 -7 63 -7 Q51 -7 41 1.5 Q31 10 31 21 Q31 28 34 38 Q55 98 97 188 Q158 319 165 335 Q197 411 228 487 Q266 577 297 635 Q316 669 345 669 Q371 669 386 639 Q422 572 444 438 Q460 333 475 227 Q481 194 497 194 Q506 194 522 222 Q553 276 595 364 Q632 444 669 524 Q713 619 751 679 Q766 702 794 702 Q816 702 828 682 Q877 603 919 363 Q956 149 956 24 Z " />
<glyph glyph-name="n" unicode="n" horiz-adv-x="775" d="M809 649 Q809 499 791 346 Q783 271 775 195 Q765 106 752 46 Q748 26 730.5 7.5 Q713 -11 694 -11 Q681 -11 665 3 Q482 169 340 460 Q320 500 308 500 Q295 500 251 394 Q173 202 173 107 Q173 71 190 43 Q207 15 207 4 Q207 -12 198 -26 Q189 -40 175 -40 Q152 -40 126 -13 Q104 11 96 36 Q85 68 85 113 Q85 252 199 508 Q224 568 279 686 Q297 720 335 720 Q359 720 370 689 Q392 628 413 566 Q439 497 467 448 Q536 324 613 233 Q635 206 647 206 Q663 206 670 244 Q682 313 695.5 452 Q709 591 721 659 Q728 703 761 703 Q782 703 795.5 686.5 Q809 670 809 649 Z " />
<glyph glyph-name="o" unicode="o" horiz-adv-x="865" d="M919 405 Q919 275 793 158 Q686 59 546 14 Q437 -21 323 -21 Q222 -21 152 40 Q79 104 79 203 Q79 328 160 447 Q236 559 358.5 630 Q481 701 605 701 Q845 701 909 476 Q919 440 919 405 Z M831 405 Q831 467 790 521 Q745 578 685 578 Q669 578 636 575.5 Q603 573 586 573 Q574 573 550.5 581 Q527 589 515 589 Q510 589 505 588 Q392 571 280 449 Q168 327 168 214 Q168 144 228 108 Q276 80 352 80 Q476 80 595 140 Q714 200 791 299 Q831 349 831 405 Z " />
<glyph glyph-name="p" unicode="p" horiz-adv-x="775" d="M877 555 Q877 462 746 386 Q681 349 532 297 Q426 256 210 183 Q185 176 171 90 Q158 8 133 8 Q117 8 106 20.5 Q95 33 95 49 Q95 124 111 203 Q134 306 175 514 Q175 514 182 581 Q186 623 197.5 647.5 Q209 672 228 672 Q245 672 276.5 655.5 Q308 639 324 639 Q335 639 361 642 Q597 669 717 669 Q776 669 822 642 Q877 610 877 555 Z M768 535 Q768 567 660 567 Q632 567 607 565 Q457 552 436 549 Q305 535 281.5 518 Q258 501 240 432 Q224 373 224 334 Q224 311 239 311 Q303 311 663 458 Q694 470 725 489 Q768 517 768 535 Z " />
<glyph glyph-name="q" unicode="q" horiz-adv-x="865" d="M924 419 Q924 336 869 257 Q835 209 767 148 Q712 99 712 89 Q712 75 726 49.5 Q740 24 740 11 Q740 -5 724 -21 Q708 -37 692 -37 Q677 -37 654.5 2 Q632 41 608 41 Q593 41 551 28 Q439 -7 347 -7 Q238 -7 164 49 Q84 111 84 218 Q84 242 89 270 Q121 451 273.5 583 Q426 715 609 715 Q847 715 914 490 Q924 455 924 419 Z M836 419 Q836 481 795 534 Q751 592 691 592 Q674 592 641 589.5 Q608 587 592 587 Q578 587 554 595.5 Q530 604 518 604 Q514 604 510 603 Q395 582 286 464 Q173 343 173 230 Q173 162 225 127 Q270 96 341 96 Q393 96 458 106 Q553 121 553 147 Q553 170 507 250 Q461 330 461 363 Q461 379 474.5 392 Q488 405 504 405 Q520 405 534 380 Q561 328 588 275 Q633 196 658 196 Q679 196 731 244 Q771 281 796 313 Q836 363 836 419 Z " />
<glyph glyph-name="r" unicode="r" horiz-adv-x="778" d="M883 556 Q883 484 797 421 Q733 374 613 328 Q528 297 443 267 Q386 246 386 235 Q386 225 463 197 Q564 160 605 139 Q681 99 681 61 Q681 43 667 22.5 Q653 2 637 2 Q624 2 608 15 Q550 59 501 77.5 Q452 96 353 128 Q233 166 210 166 Q189 166 176 89.5 Q163 13 138 13 Q123 13 112 26 Q101 39 101 54 Q101 130 121 223 Q120 228 120 233 Q120 248 129 262 Q148 347 181 519 Q184 553 188 586 Q193 628 204 652.5 Q215 677 236 677 Q254 677 285.5 660 Q317 643 330 643 Q340 643 367 647 Q562 673 724 673 Q785 673 830 646 Q883 613 883 556 Z M773 526 Q779 532 778 544 Q777 556 767 560 Q745 571 723 572 Q732 571 677 571 Q632 571 428 551 Q385 548 302 534 Q268 525 260 496 Q230 396 230 329 Q230 314 247 314 Q279 314 428 369 Q515 401 602 434 Q731 486 773 526 Z " />
<glyph glyph-name="s" unicode="s" horiz-adv-x="836" d="M910 667 Q910 653 901 641 Q892 629 878 629 Q865 629 853 642 Q849 642 835 647.5 Q821 653 806 653 Q740 653 619 605 Q518 564 442 518 Q342 457 342 435 Q342 422 369 422 Q380 422 466 435 Q641 461 715 461 Q873 461 873 343 Q873 263 754 156 Q672 82 564 19 Q437 -55 288 -55 Q206 -55 144 -21 Q67 20 67 95 Q67 135 91 168 Q93 171 121 191 Q137 203 147 203 Q161 203 173.5 187 Q186 171 186 156 Q186 146 177.5 131 Q169 116 169 109 Q169 100 181 90 Q215 59 299 59 Q526 59 740 275 Q789 325 789 351 Q789 375 726 375 Q592 375 357 324 Q320 315 284 306 Q241 297 209 297 Q140 297 140 344 Q140 360 150 374 Q268 556 526 663 Q701 736 801 736 Q840 736 871 721 Q910 702 910 667 Z " />
<glyph glyph-name="t" unicode="t" horiz-adv-x="606" d="M736 652 Q736 627 708 621 Q653 615 545 596 Q497 584 486 481 Q479 422 459 328 Q433 204 428 175 Q421 125 405 27 Q396 -15 363 -15 Q316 -15 316 57 Q316 139 346 274 Q381 437 387 491 Q388 507 388 517 Q388 566 341 566 Q315 566 264 562 Q213 558 187 558 Q153 558 143 562 Q124 569 124 598 Q124 633 154 637 Q244 645 425 666 Q630 696 698 696 Q736 696 736 652 Z " />
<glyph glyph-name="u" unicode="u" horiz-adv-x="823" d="M865 654 L864 649 Q861 589 844 492 Q823 373 818 336 Q818 334 804 175 Q795 71 781 18 Q772 -17 746 -17 Q708 -17 708 39 Q708 46 709 59 Q710 72 710 76 Q710 123 684 123 Q669 123 639 107 Q524 45 464 20 Q373 -19 276 -37 Q255 -40 238 -40 Q170 -40 130 16 Q94 66 94 137 Q94 183 132 325 Q173 479 218 588 Q274 721 314 721 Q333 721 346 704 Q359 687 359 668 Q359 654 351 640 Q326 595 282 501 Q188 255 188 134 Q188 62 247 62 Q301 62 379 89 Q446 113 557 171 Q690 241 709 276 Q723 300 728 331 Q740 417 751 502 Q768 609 795 667 Q807 691 828 691 Q844 691 854.5 680 Q865 669 865 654 Z " />
<glyph glyph-name="v" unicode="v" horiz-adv-x="668" d="M785 637 Q785 627 780 618 Q768 595 676 465 Q621 387 574.5 311 Q528 235 482 159 Q426 67 382 16 Q364 -5 339 -5 Q286 -5 241 152 Q196 309 179 386 Q149 522 149 624 L149 629 Q149 651 163.5 669.5 Q178 688 199 688 Q229 688 239 646 Q242 634 262 519 Q286 378 311 291 Q342 183 357 183 Q376 183 393 205 Q413 234 452 293 Q561 457 585 491 Q678 621 736 664 Q747 672 756 672 Q785 672 785 637 Z " />
<glyph glyph-name="w" unicode="w" horiz-adv-x="952" d="M1081 647 Q1081 641 1078 635 Q1067 606 995 476 Q956 404 913 317 Q876 237 839 158 Q792 57 756 6 Q742 -16 713 -16 Q693 -16 680 3 Q648 54 623 154 Q615 188 590 315 Q584 355 577 395 Q564 460 554 460 Q551 460 547 456 Q530 436 480 318 Q449 242 418 166 Q381 77 348 18 Q330 -15 299 -15 Q275 -15 259 14 Q221 88 187 299 Q156 491 156 604 Q156 676 200 676 Q237 676 246 635 Q252 610 273 425 Q290 274 314 230 Q319 223 324 223 Q339 223 380 314 Q422 401 464 488 Q527 623 527 652 Q527 697 581 697 Q633 697 642 656 Q648 634 664 503.5 Q680 373 709 251 Q720 208 736 208 Q752 208 769 237 Q835 361 901 484 Q1012 684 1049 684 Q1062 684 1071.5 672 Q1081 660 1081 647 Z " />
<glyph glyph-name="x" unicode="x" horiz-adv-x="752" d="M852 629 Q852 616 838 604 Q742 527 645 451 Q489 324 489 301 Q489 256 692 96 Q713 80 713 62 Q713 44 698 25.5 Q683 7 665 7 Q630 7 545 81 Q488 132 437 187 Q414 213 400 213 Q386 213 299 120 Q212 27 190 27 Q172 27 159.5 43 Q147 59 147 77 Q147 106 238 200 Q329 294 329 316 Q329 331 251.5 464.5 Q174 598 174 626 Q174 644 187 658.5 Q200 673 218 673 Q250 673 325 538 Q400 403 426 403 Q437 403 452 415 Q536 484 620 553 Q720 631 804 666 Q814 670 820 670 Q833 670 842.5 656.5 Q852 643 852 629 Z " />
<glyph glyph-name="y" unicode="y" horiz-adv-x="686" d="M834 663 Q834 650 824 636 Q801 604 760 559 Q725 523 690 487 Q625 414 567 329 Q527 270 469 165 Q400 43 373 0 Q359 -23 342 -23 Q323 -23 307 -7.5 Q291 8 291 27 Q291 51 322.5 105.5 Q354 160 354 186 Q354 205 332 239 Q295 295 226 410 Q168 515 146 596 Q145 601 145 607 Q145 623 155.5 639 Q166 655 182 655 Q195 655 206 638 Q258 548 309 457 Q393 310 416 310 Q432 310 464 355 Q483 385 503 415 Q663 635 790 698 Q802 704 809 704 Q834 704 834 663 Z " />
<glyph glyph-name="z" unicode="z" horiz-adv-x="833" d="M903 557 Q903 535 879 523 Q815 497 689 443 Q560 381 433 309 Q228 193 228 152 Q228 114 317 114 Q404 114 524 157 Q579 176 721 240 Q736 247 746 247 Q765 247 777 225 Q787 207 787 186 Q787 161 760 144 Q581 36 378 13 Q341 9 309 9 Q238 9 167 38 Q77 75 77 135 Q77 198 312 343 Q480 447 635 520 Q689 545 689 559 Q689 583 564 583 Q503 583 402 572 Q281 559 240 557 L233 557 Q206 555 206 590 Q206 612 231 620 Q383 671 582 671 Q785 671 878 608 Q903 591 903 557 Z " />
<glyph glyph-name="braceleft" unicode="&#x7b;" horiz-adv-x="888" d="M842 557 Q842 540 832.5 525 Q823 510 808 510 Q760 510 638 591 Q511 674 511 716 Q511 731 521.5 744.5 Q532 758 547 758 Q557 758 568 749 Q600 720 669 667 Q681 659 818 590 Q842 578 842 557 Z M645 354 Q645 314 610 308 Q554 299 383 299 Q347 299 275 293.5 Q203 288 168 288 Q129 288 129 333 Q129 364 161 372 Q288 405 503 405 Q574 405 609.5 399.5 Q645 394 645 354 Z M727 141 Q727 113 700 103 Q640 80 575 43 Q516 8 457 -27 Q447 -33 439 -33 Q427 -33 418.5 -18.5 Q410 -4 410 9 Q410 41 537 111 Q659 178 701 178 Q727 178 727 141 Z " />
<glyph glyph-name="bar" unicode="&#x7c;" horiz-adv-x="276" d="M352 790 Q352 657 230 190 Q200 62 155 -114 Q142 -157 106 -157 Q67 -157 67 -110 Q67 -44 109 127 Q115 152 170 361 Q184 413 219 585 Q259 778 266 810 Q276 851 316 851 Q352 851 352 790 Z " />
<glyph glyph-name="braceright" unicode="&#x7d;" horiz-adv-x="877" d="M629 717 Q629 683 503 614 Q382 548 337 548 Q312 548 312 584 Q312 611 339 622 Q400 646 464 683 Q523 718 583 753 Q593 759 599 759 Q611 759 620 744 Q629 729 629 717 Z M910 390 Q910 362 879 354 Q741 320 545 320 Q471 320 432.5 326 Q394 332 394 372 Q394 412 430 418 Q478 426 655 426 Q691 426 763.5 431.5 Q836 437 872 437 Q910 437 910 390 Z M528 10 Q528 -5 518 -18.5 Q508 -32 493 -32 Q483 -32 472 -23 Q419 20 394 38 Q351 70 311 92 Q281 106 221 136 Q197 148 197 173 Q197 189 207.5 201.5 Q218 214 235 214 Q282 214 403 134 Q528 51 528 10 Z " />
<glyph glyph-name="asciitilde" unicode="&#x7e;" horiz-adv-x="809" d="M842 300 Q842 266 806 257 Q777 250 688 203 Q613 165 566 165 Q516 165 460.5 208.5 Q405 252 364 252 Q327 252 263 214.5 Q199 177 163 177 Q130 177 122 180 Q103 186 103 211 Q103 250 134 262 Q149 268 233 322 Q297 363 346 363 Q395 363 460.5 315.5 Q526 268 572 268 Q614 268 683.5 310.5 Q753 353 792 355 L799 355 Q842 357 842 300 Z " />
<glyph glyph-name="copyright" unicode="&#xa9;" horiz-adv-x="865" d="M919 405 Q919 275 793 158 Q686 59 546 14 Q436 -21 323 -21 Q222 -21 152 40 Q79 104 79 203 Q79 328 159 447 Q236 559 358.5 630 Q481 701 604 701 Q845 701 908 476 Q919 440 919 405 Z M830 405 Q830 467 789 521 Q745 578 685 578 Q668 578 635 575.5 Q602 573 586 573 Q573 573 550 581 Q527 589 515 589 Q509 589 505 588 Q392 571 281 450 Q167 327 167 214 Q167 144 227 108 Q276 80 352 80 Q475 80 594.5 140 Q714 200 791 299 Q830 349 830 405 Z M653 296 Q653 288 649 280 Q626 240 555 207 Q489 177 439 177 Q390 177 359 203 Q325 230 325 280 Q325 366 407 438 Q486 508 572 508 Q594 508 613 501 Q640 491 640 473 Q640 443 612 443 Q605 443 589.5 447 Q574 451 564 451 Q539 451 512 438 Q458 413 422 375 Q378 330 378 282 Q378 234 429 234 Q490 234 557 272 Q580 285 605 314 Q615 326 626 326 Q653 326 653 296 Z " />
<glyph glyph-name="registered" unicode="&#xae;" horiz-adv-x="865" d="M919 405 Q919 275 793 158 Q686 59 546 14 Q436 -21 323 -21 Q222 -21 152 40 Q79 104 79 203 Q79 328 159 447 Q236 559 358.5 630 Q481 701 604 701 Q845 701 908 476 Q919 440 919 405 Z M830 405 Q830 467 789 521 Q745 578 685 578 Q668 578 635 575.5 Q602 573 586 573 Q573 573 550 581 Q527 589 515 589 Q509 589 505 588 Q392 571 281 450 Q167 327 167 214 Q167 144 227 108 Q276 80 352 80 Q475 80 594.5 140 Q714 200 791 298 Q830 349 830 405 Z M714 446 Q714 393 629 351 Q620 346 498 301 Q493 298 483 294 Q563 263 564 263 Q618 237 618 212 Q618 201 609 188 Q600 175 587 175 Q578 175 568 183 Q541 203 519 211 Q458 234 385 252 Q382 252 378 224 Q370 180 350 180 Q339 180 331 189 Q323 198 323 209 Q323 245 332 289 Q332 291 332 293 Q332 302 337 311 Q345 350 361 430 Q364 455 368 480 Q375 513 397 513 Q407 513 422.5 505 Q438 497 441 497 Q445 497 457 498 Q551 511 629 511 Q660 511 684 496 Q714 479 714 446 Z M645 439 Q635 444 607 444 Q585 444 489 434 Q469 433 430 426 Q420 424 417 415 Q405 374 403 341 Q434 343 567 397 Q627 421 645 439 Z " />
<glyph glyph-name="quoteleft" unicode="&#x2018;" horiz-adv-x="242" d="M259 385 Q220 383 187 428 Q172 448 175 467 Q178 501 178 532 Q178 584 165 649 Q152 714 138 780 Q132 811 151 812 Q174 814 200 794 Q226 774 236 752 Q253 717 268 622 Q283 527 283 452 Q283 411 283 411 Q279 387 259 385 Z " />
<glyph glyph-name="quoteright" unicode="&#x2019;" horiz-adv-x="273" d="M382 767 Q383 760 381 752 Q374 703 307 567.5 Q240 432 207 396 Q198 387 180 385 Q162 384 149 397.5 Q136 411 134 428 Q132 448 146 467 Q201 544 235 619 Q240 630 300 780 Q312 811 333 812 Q351 813 365.5 799 Q380 785 382 767 Z " />
<glyph glyph-name="quotedblleft" unicode="&#x201c;" horiz-adv-x="465" d="M480 380 Q441 378 408 423 Q394 443 396 462 Q400 496 400 527 Q400 579 387 644 Q374 709 359 775 Q353 806 373 807 Q395 809 421.5 789 Q448 769 458 747 Q474 712 489 617 Q504 522 504 447 Q504 406 504 406 Q501 382 480 380 Z M261 385 Q222 383 189 428 Q174 448 177 467 Q180 501 180 532 Q180 584 167 649 Q154 714 140 780 Q134 811 153 812 Q176 814 202 794 Q228 774 238 752 Q255 717 270 622 Q285 527 285 452 Q285 411 285 411 Q281 387 261 385 Z " />
<glyph glyph-name="quotedblright" unicode="&#x201d;" horiz-adv-x="493" d="M611 762 Q612 755 611 747 Q604 695 538.5 564.5 Q473 434 436 391 Q428 382 409 380 Q392 379 379 392.5 Q366 406 363 423 Q361 443 375 462 Q430 539 465 614 Q470 625 530 775 Q542 806 563 807 Q581 808 595 794 Q609 780 611 762 Z M395 767 Q396 760 394 752 Q387 700 322 569.5 Q257 439 220 396 Q211 387 193 385 Q175 384 162 397.5 Q149 411 147 428 Q145 448 159 467 Q214 544 248 619 Q253 630 313 780 Q325 811 346 812 Q364 813 378.5 799 Q393 785 395 767 Z " />
<glyph glyph-name="ellipsis" unicode="&#x2026;" horiz-adv-x="1505" d="M1437 102 Q1437 75 1407 66 Q1370 54 1277 43 Q1190 33 1144 33 Q1101 33 1101 87 Q1101 124 1139 132 Q1205 146 1395 146 Q1437 146 1437 102 Z M949 88 Q949 61 919 52 Q882 40 789 29 Q702 19 656 19 Q613 19 613 73 Q613 110 651 118 Q718 132 907 132 Q949 132 949 88 Z M461 74 Q461 47 431 38 Q394 26 301 15 Q214 5 168 5 Q125 5 125 59 Q125 96 163 104 Q230 118 419 118 Q461 118 461 74 Z " />
<glyph glyph-name="trademark" unicode="&#x2122;" horiz-adv-x="931" d="M951 323 Q951 296 926 296 Q904 296 898 321 Q895 333 888 385 Q883 425 871 503 Q854 595 843 595 Q840 595 838 593 Q831 586 776 480 Q746 424 711 365 Q707 347 691 314 Q677 298 651 298 Q627 298 622 319 Q614 353 609 409 Q601 480 598.5 499 Q596 518 588 556 Q585 568 580 568 Q572 568 566 557 Q560 543 548 516 Q520 457 492 399 Q444 305 424 305 Q406 305 406 321 Q406 325 408 331 Q420 367 444 419 Q481 497 485 506 Q508 567 563 683 Q574 704 591 704 Q606 704 615 686 Q636 646 649 567 Q658 505 668 443 Q671 423 680 423 Q686 423 695 440 Q718 478 762 575 Q801 664 830 709 Q839 723 856 723 Q869 723 876 711 Q905 664 929 523 Q951 397 951 323 Z M509 693 Q509 679 492 675 Q460 672 396 660 Q368 653 361 593 Q356 546 333 412 Q329 383 319 325 Q314 300 295 300 Q267 300 267 342 Q267 391 285.5 483 Q304 575 304 614 Q304 643 276 643 Q261 643 230.5 640.5 Q200 638 185 638 Q165 638 159 640 Q148 645 148 661 Q148 682 165 685 Q219 689 326 701 Q447 719 486 719 Q509 719 509 693 Z " />
</font>
</svg>
