<?xml version="1.0" encoding="UTF-8"?>
<svg xmlns="http://www.w3.org/2000/svg" xmlns:xlink="http://www.w3.org/1999/xlink" version="1.2" >
<font id="CrimeFighter BB Bold">
<font-face  font-family="CrimeFighter BB" units-per-em="1024" ascent="884" descent="-206" font-style="normal" font-weight="700" font-stretch="normal" cap-height="768" x-height="512" underline-position="0" underline-thickness="0" />
<missing-glyph  horiz-adv-x="512" d="M64 0 L64 884 L448 884 L448 0 L64 0 Z M128 64 L384 64 L384 820 L128 820 L128 64 Z " />
<glyph glyph-name="space" unicode="&#x20;" horiz-adv-x="469" d="" />
<glyph glyph-name="exclam" unicode="&#x21;" horiz-adv-x="584" d="M701 721 Q684 678 645 610 Q588 512 582 499 Q572 480 518 366 Q479 285 446.5 234 Q414 183 376 183 Q324 183 324 244 Q324 266 344 316 Q384 418 454 555 Q542 725 595 780 Q628 813 658 813 Q708 813 708 758 Q708 739 701 721 Z M515 18 Q501 -20 451 -37 Q347 -74 145 -74 Q119 -74 104 -57.5 Q89 -41 89 -16 Q89 0 95 16 Q114 64 171 79 Q236 96 348 96 Q367 96 406.5 95 Q446 94 465 94 Q490 94 505 79.5 Q520 65 520 43 Q520 31 515 18 Z " />
<glyph glyph-name="quotedbl" unicode="&#x22;" horiz-adv-x="582" d="M778 769 Q779 721 715 558 Q656 407 622 366 Q596 336 563 336 Q533 336 513 357 Q493 378 493 408 Q493 430 506 454 Q556 545 580 606 Q593 638 610.5 702 Q628 766 641 798 Q662 852 703 852 Q734 852 756 826 Q778 800 778 769 Z M539 775 Q540 726 476 564 Q417 412 383 372 Q357 341 324 341 Q294 341 274 362.5 Q254 384 254 414 Q254 436 267 459 Q317 550 341 612 Q354 644 372 708 Q390 772 402 804 Q423 857 464 857 Q495 857 517 831 Q539 805 539 775 Z " />
<glyph glyph-name="numbersign" unicode="&#x23;" horiz-adv-x="1008" d="M1136 518 Q1083 492 996 464 Q883 428 855 417 Q817 403 805 374 Q839 374 912 397 Q985 420 1020 420 Q1061 420 1061 375 Q1061 362 1055 348 Q1040 310 997 293 Q925 273 852 253 Q741 222 723 202 Q702 178 673 107 Q639 22 625 -1 Q595 -53 560 -53 Q504 -53 504 2 Q504 30 529 78 Q557 132 561 155 Q549 154 511.5 143.5 Q474 133 459 126 Q423 109 378 22 Q340 -56 295 -56 Q275 -56 258.5 -43 Q242 -30 242 -11 Q242 0 252 21 Q260 38 268 54 Q273 65 269 66 L265 64 Q256 64 234.5 58 Q213 52 203 52 Q159 52 159 96 Q159 109 165 123 Q180 162 234 186 Q282 204 331 223 Q384 247 400 286 Q404 296 391 298 Q391 298 370 298 Q351 298 313 295.5 Q275 293 256 293 Q205 293 205 332 Q205 346 212 364 Q226 402 270 415 Q284 420 398 440 Q496 457 514 471 Q529 483 622 607 Q702 713 735 713 Q755 713 769.5 697 Q784 681 784 660 Q784 630 734 579 Q680 523 674 503 Q735 503 771 550 Q912 737 962 737 Q983 737 995 722 Q1007 707 1007 686 Q1007 659 982 627 Q959 602 937 577 Q954 581 1046 613 Q1120 639 1148 639 Q1186 639 1186 592 Q1186 542 1136 518 Z M657 355 Q624 355 590 342 Q547 324 537 295 Q565 296 603 312 Q649 331 657 355 Z " />
<glyph glyph-name="dollar" unicode="&#x24;" horiz-adv-x="869" d="M1051 679 Q1043 658 1022 636 Q999 610 980 610 Q968 610 953 622 Q938 634 919 634 Q902 634 869 629 Q832 622 821 615 Q796 599 767 525 Q764 517 769 517 Q772 517 789 519.5 Q806 522 814 522 Q974 522 974 424 Q974 397 961 364 Q925 272 784 168 Q666 81 547 32 Q526 -19 504 -70 Q470 -136 422 -136 Q369 -136 369 -89 Q369 -59 391 -7 Q367 -9 343 -9 Q257 -9 198 20 Q128 56 128 123 Q128 151 141 184.5 Q154 218 193.5 252.5 Q233 287 267 287 Q315 287 315 233 Q315 218 309 203 Q299 178 299 178 Q299 163 326 160 Q328 159 368 159 Q421 159 431 163 Q459 171 478 213 Q490 241 514 297 Q520 318 531 344 Q497 344 422.5 328 Q348 312 313 312 Q239 312 239 363 Q239 396 265 427 Q406 592 676 705 Q700 715 710 723 Q717 730 732 754 Q772 820 782 833 Q821 884 853 884 Q908 884 908 833 Q908 822 892 781 Q888 769 892 769 Q896 770 900 772 Q921 774 940 774 Q981 774 1015 757 Q1056 736 1056 702 Q1056 691 1051 679 Z M618 536 Q588 536 532 492 Q555 493 590 498 Q610 516 618 536 Z M829 383 Q831 388 821 388 Q817 388 808.5 386 Q800 384 796 384 L768 384 Q718 385 700 369 Q682 353 649 268 Q644 257 637 235 Q663 247 742.5 306.5 Q822 366 829 383 Z " />
<glyph glyph-name="percent" unicode="&#x25;" horiz-adv-x="1232" d="M1272 245 Q1232 141 1153 65 Q1062 -24 964 -24 Q834 -24 834 100 Q834 149 857 208 Q888 285 945 353 Q1008 426 1083 463 Q1108 517 1162 517 Q1229 517 1264 471 Q1296 430 1296 363 Q1296 304 1272 245 Z M1312 797 Q1265 741 1184 670 Q1115 610 1045 550 Q912 432 782 310 Q648 183 515 56 Q335 -110 237 -167 Q211 -182 192 -182 Q171 -182 157 -167.5 Q143 -153 143 -133 Q143 -122 147 -112 Q162 -74 273 20 Q384 114 391 132 Q392 134 392 138 Q392 149 359 159 Q337 164 314 170.5 Q291 177 275 188 Q218 224 218 312 Q218 391 253 480 Q293 583 367 666 Q448 758 550 800 Q581 839 658 867 Q725 893 774 893 Q839 893 886 861.5 Q933 830 946 777 Q956 739 946 629 Q1036 708 1125 786 Q1269 909 1297 909 Q1338 909 1338 862 Q1338 828 1312 797 Z M1129 264 Q1140 292 1140 315 Q1140 339 1127 354 Q1085 340 1043 285 Q1010 240 991 193 Q980 165 980 148 Q980 132 992 132 Q1031 132 1075 181 Q1112 221 1129 264 Z M798 635 Q808 660 808 678 Q808 728 746 735 Q723 678 672 678 Q663 678 647 679.5 Q631 681 623 681 Q551 681 476 599 Q414 531 384 453 Q366 407 366 373 Q366 314 419 314 Q502 314 637 435 Q764 548 798 635 Z " />
<glyph glyph-name="ampersand" unicode="&#x26;" horiz-adv-x="1050" d="M1019 12 Q1009 -14 984.5 -29.5 Q960 -45 935 -45 Q938 -45 890 -40 Q764 -25 728 -25 Q697 -25 612 -56 Q446 -117 340 -117 Q249 -117 176 -74 Q91 -25 91 52 Q91 80 103 109 Q125 166 185 225 Q223 262 288 310 Q341 349 343 356 Q348 367 346 415 Q344 467 346 483 Q352 514 365 546 Q413 670 538 750 Q656 826 782 826 Q867 826 929 788 Q1000 746 1000 675 Q1000 646 987 615 Q945 508 745 404 Q793 424 837 424 Q894 424 925 392 Q956 360 956 308 Q956 271 940 231 Q939 229 914 175 Q897 139 895 119 Q893 106 926 98 Q981 86 990 82 Q1025 68 1025 39 Q1025 27 1019 12 Z M842 634 Q848 648 811 657 Q786 662 764 662 Q689 662 620 631 Q537 592 509 522 Q496 487 496 460 Q496 442 505 442 Q530 442 682.5 528 Q835 614 842 634 Z M796 265 Q784 263 756 251 Q732 241 715 241 Q690 241 674.5 258.5 Q659 276 659 301 Q659 354 721 391 Q664 364 607 336 Q557 312 553 303 Q544 280 616.5 217.5 Q689 155 717 155 Q733 155 758 185 Q781 212 788 231 Q794 247 796 265 Z M512 66 Q513 75 488 97 Q453 126 420 173 Q398 205 383 205 Q362 205 311 161 Q266 121 249 96 Q246 58 314 46 Q343 42 420 42 Q510 42 512 66 Z " />
<glyph glyph-name="quotesingle" unicode="&#x27;" horiz-adv-x="364" d="M556 775 Q557 726 493 564 Q434 412 400 372 Q374 341 341 341 Q311 341 291 362 Q271 383 271 413 Q271 436 284 459 Q334 550 358 611 Q371 644 389 708 Q407 772 419 803 Q440 857 481 857 Q512 857 534 831 Q556 805 556 775 Z " />
<glyph glyph-name="parenleft" unicode="&#x28;" horiz-adv-x="480" d="M836 875 Q827 850 798 829 Q794 826 730 788 Q595 709 493.5 591.5 Q392 474 340 341 Q297 232 297 141 Q297 93 314.5 45.5 Q332 -2 351 -48 Q362 -78 352 -103 Q342 -129 318.5 -147 Q295 -165 270 -165 Q246 -165 225 -144 Q151 -67 151 86 Q151 216 202 348 Q286 561 479 741 Q542 799 637 862 Q754 938 804 938 Q841 938 841 899 Q841 888 836 875 Z " />
<glyph glyph-name="parenright" unicode="&#x29;" horiz-adv-x="498" d="M610 419 Q528 210 335 31 Q272 -27 177 -89 Q62 -165 11 -165 Q-27 -165 -27 -120 Q-27 -107 -22 -94 Q-15 -75 17 -55 Q76 -19 135 18 Q198 59 246 104 Q481 325 514 584 Q517 612 517 636 Q517 684 502 731 Q496 747 464 822 Q451 853 460 874 Q469 899 495.5 919.5 Q522 940 546 940 Q568 940 589 917 Q662 837 662 684 Q662 553 610 419 Z " />
<glyph glyph-name="asterisk" unicode="&#x2a;" horiz-adv-x="662" d="M867 672 Q857 644 789 605 Q727 568 711 570 Q710 561 744 527.5 Q778 494 778 469 Q778 443 750 416 Q722 389 696 389 Q677 389 643 423.5 Q609 458 594 458 Q587 447 574 424 Q542 367 527 348 Q491 301 455 301 Q407 301 407 347 Q407 361 414 377 Q429 401 454 449 Q438 445 374 416 Q319 392 299 392 Q257 392 257 434 Q257 446 262 459 Q275 491 323 515 Q325 516 403 549 Q430 556 459 570 Q462 577 409 631 Q352 689 352 723 Q352 748 379 771.5 Q406 795 431 795 Q450 795 503 745.5 Q556 696 576 696 Q577 698 598 737 Q673 873 721 873 Q768 873 768 834 Q768 815 755 786.5 Q742 758 716 701 L714 693 Q743 707 772 721 Q807 738 830 738 Q872 738 872 694 Q872 683 867 672 Z " />
<glyph glyph-name="plus" unicode="&#x2b;" horiz-adv-x="801" d="M911 404 Q894 360 840 349 Q805 341 694 332 Q603 325 544 305 L544 293 Q542 280 543 241 Q544 210 536 189 Q511 127 451 127 Q410 127 410 187 Q410 206 414.5 238 Q419 270 419 277 Q419 286 415 287 Q407 290 389 290 Q374 290 342.5 288.5 Q311 287 296 287 Q198 287 198 336 Q198 350 205 367 Q221 408 270 423 Q299 431 360 432 Q413 433 426 441 L429 448 Q430 456 439 532 Q445 591 453 612 Q472 660 522 660 Q562 660 562 607 Q562 587 555.5 545.5 Q549 504 549 489 Q549 461 566 461 Q572 461 586 463 Q804 491 864 491 Q888 491 902.5 474.5 Q917 458 917 434 Q917 419 911 404 Z " />
<glyph glyph-name="comma" unicode="&#x2c;" horiz-adv-x="422" d="M419 190 Q381 94 292 -23 Q192 -154 105 -202 Q76 -217 54 -217 Q5 -217 5 -166 Q5 -127 42 -90 Q89 -45 177 51 Q193 71 300 233 Q333 283 374 283 Q426 283 426 226 Q426 209 419 190 Z " />
<glyph glyph-name="&amp;#x2d;" unicode="&#x2d;" horiz-adv-x="948" d="M1011 289 Q996 251 941 234 Q860 210 742 198 Q645 190 548 181 Q463 170 378 159 Q279 146 212 146 Q135 146 135 186 Q135 202 144 225 Q159 262 205 282 Q260 307 392 323 Q487 332 583 342 Q677 356 771 370 Q884 387 956 387 Q1020 387 1020 332 Q1020 313 1011 289 Z " />
<glyph glyph-name="&amp;#x2010;" unicode="&#x2010;" horiz-adv-x="948" d="M1011 289 Q996 251 941 234 Q860 210 742 198 Q645 190 548 181 Q463 170 378 159 Q279 146 212 146 Q135 146 135 186 Q135 202 144 225 Q159 262 205 282 Q260 307 392 323 Q487 332 583 342 Q677 356 771 370 Q884 387 956 387 Q1020 387 1020 332 Q1020 313 1011 289 Z " />
<glyph glyph-name="period" unicode="&#x2e;" horiz-adv-x="624" d="M551 69 Q536 32 488 14 Q452 1 337 -12 Q234 -24 184 -24 Q159 -24 144 -7 Q129 10 129 35 Q129 51 135 67 Q154 115 211 130 Q276 147 388 147 Q406 147 444 147 Q482 146 500 146 Q525 146 540.5 131.5 Q556 117 556 94 Q556 82 551 69 Z " />
<glyph glyph-name="slash" unicode="&#x2f;" horiz-adv-x="764" d="M1105 798 Q1093 784 1028 724 L839 551 Q663 389 310 65 Q242 2 146 -75 Q12 -183 -15 -183 Q-35 -183 -49.5 -166 Q-64 -149 -64 -128 Q-64 -102 -26 -62 Q4 -35 34 -8 L767 655 Q910 786 928 801 Q1053 909 1091 909 Q1109 909 1120 893 Q1131 877 1131 856 Q1131 828 1105 798 Z " />
<glyph glyph-name="zero" unicode="0" horiz-adv-x="1036" d="M1149 500 Q1155 426 1127 353 Q1075 220 923 107 Q790 7 634 -40 Q502 -80 374 -80 Q261 -80 196.5 -20 Q132 40 132 140 Q132 205 161 277 Q236 470 443 615 Q650 760 844 760 Q980 760 1059 692 Q1138 624 1149 500 Z M988 373.5 Q1002 409 1002 446 Q1002 502 974 539 Q943 579 890 579 Q872 579 835.5 576.5 Q799 574 781 574 Q766 574 743 582.5 Q720 591 705 591 Q603 591 464 468 Q335 353 294 246 Q280 212 280 183 Q280 129 329 101 Q372 76 443 76 Q565 76 705 137 Q853 202 946 305 Q974 338 988 373.5 Z " />
<glyph glyph-name="one" unicode="1" horiz-adv-x="489" d="M730 682.5 Q723 665 676 597 Q644 551 612 506 Q505 347 456 223 Q435 156 392 23 L389 13 Q379 -14 356 -31 Q333 -48 305 -48 Q255 -48 255 6 Q255 24 261 60 Q291 220 389 394 Q404 420 419 445 Q437 476 443 499 Q424 491 336 434 Q260 385 237 385 Q222 385 212 402 Q203 416 203 435 Q203 445 206 452 Q223 495 357 579 Q448 633 540 687 Q578 711 616 735 Q669 766 690 766 Q737 766 737 716 Q737 700 730 682.5 Z " />
<glyph glyph-name="two" unicode="2" horiz-adv-x="908" d="M989 205 Q972 161 914 149 Q895 145 780 132 Q687 122 499 94 Q398 75 302 37 Q230 8 108 -56 Q78 -72 60 -72 Q13 -72 13 -23 Q13 14 46 49 Q100 104 194 175 Q272 235 349 294 Q480 399 639 547 Q672 576 712 622 Q715 629 700 629 Q682 629 633 613 Q590 599 564 586 Q519 564 465 514 Q435 486 412 486 Q373 486 373 530 Q373 608 516 687 Q646 760 731 760 Q779 760 811 732.5 Q843 705 843 662 Q843 639 834 615 Q805 542 663 418 Q556 327 449 235 Q463 237 497 244 Q528 250 830 299 Q914 312 944 312 Q999 312 999 252 Q999 230 989 205 Z " />
<glyph glyph-name="three" unicode="3" horiz-adv-x="805" d="M959 691 Q944 653 859 603 Q743 534 736 528 Q806 529 862 494 Q924 455 924 394 Q924 371 914 346 Q877 252 705 156 Q559 74 365 14 Q185 -41 89 -41 Q13 -41 13 0 Q13 16 22 39 Q41 88 102 98 Q144 104 228 119 Q356 146 568 227 Q791 313 791 366 Q791 394 701 394 Q591 394 512 374 Q453 359 319 303 Q294 293 281 293 Q241 293 241 344 Q241 361 247 376 Q259 405 290 426 Q299 433 360 460 Q604 571 675 628 Q636 628 556 603 Q476 578 449 578 Q411 578 411 617 Q411 629 416 643 Q430 678 470 698 Q534 729 694 753 Q832 774 916 774 Q967 774 967 729 Q967 712 959 691 Z " />
<glyph glyph-name="four" unicode="4" horiz-adv-x="820" d="M908 263 Q892 222 841 210 Q798 199 736 197 Q684 195 633 194 Q597 191 587 184.5 Q577 178 556 143 Q525 92 495 40 Q444 -38 416 -38 Q369 -38 369 10 Q369 23 374 38 Q382 57 402 96.5 Q422 136 430 156.5 Q438 177 435 184 Q433 187 344 187 Q316 187 259 185 Q202 183 174 183 Q132 183 132 228 Q132 242 137 256 Q149 286 218 336 Q269 373 319 409 Q445 513 571 617 Q769 773 819 773 Q861 773 861 724 Q861 707 854 692 Q822 610 697 392 Q689 378 677 350 Q680 346 719 346 Q744 346 795 348.5 Q846 351 870 351 Q917 351 917 304 Q917 285 908 263 Z M644 538 Q422 373 380 324 Q481 324 523 345 Q554 360 644 538 Z " />
<glyph glyph-name="five" unicode="5" horiz-adv-x="756" d="M1045 649 Q1025 598 975 598 Q945 598 885.5 601 Q826 604 795 604 Q634 604 576 559 Q560 546 534 502 Q511 464 502 440 Q500 434 499 430 Q513 421 564 417 Q619 412 636 405 Q678 389 706 350 Q736 308 736 260 Q736 232 725 204 Q684 99 530 35 Q425 -9 296 -44 Q151 -83 69 -83 Q47 -83 32.5 -70 Q18 -57 18 -36 Q18 -2 49 20 Q63 31 84.5 37 Q106 43 142 47 Q187 53 201 56 Q489 113 601 207 Q605 211 612 221 Q614 226 614 232 Q614 256 573 276 Q538 293 509 293 Q455 293 395 267 Q367 255 304 219 Q259 193 241 193 Q222 193 209.5 207 Q197 221 197 241 Q197 252 202 263 Q216 299 317.5 402.5 Q419 506 431 538 Q435 548 433 564 Q430 587 430 592 Q430 603 434 614 Q458 674 658 711 Q803 737 905 737 Q973 737 1000 731 Q1052 719 1052 681 Q1052 667 1045 649 Z " />
<glyph glyph-name="six" unicode="6" horiz-adv-x="744" d="M800 693 Q789 666 758 646 Q758 645 686 613 Q384 474 283 275 Q274 257 272 245 L276 244 Q282 246 334 297 Q395 356 447 387 Q525 435 603 435 Q686 435 746 384.5 Q806 334 806 257 Q806 195 760 128 Q692 28 572 -31 Q461 -85 352 -85 Q238 -85 174.5 -34.5 Q111 16 111 107 Q111 167 139 240 Q212 425 409 572 Q484 628 585 685 Q713 758 761 758 Q805 758 805 716 Q805 705 800 693 Z M660 220 Q660 248 629.5 269 Q599 290 568 290 Q512 290 426.5 220 Q341 150 319 93 Q312 76 312 69 Q312 57 328 57 Q423 57 500 83 Q605 118 652 194 Q660 206 660 220 Z " />
<glyph glyph-name="seven" unicode="7" horiz-adv-x="803" d="M1081 678 Q1068 644 1008 603 Q962 573 915 543 Q723 402 487 100 Q439 38 425 23 Q378 -29 349 -29 Q331 -29 319 -15 Q307 -1 307 18 Q307 29 311 38 Q336 101 521 319 Q618 433 750 554 Q793 594 797 605 Q797 605 785 605 Q766 605 764 604 Q705 604 631 588 Q563 571 494 554 Q480 550 361 514 Q260 483 243 483 Q200 483 200 529 Q200 575 251 603 Q364 666 642 714 Q883 755 1032 755 Q1086 755 1086 705 Q1086 692 1081 678 Z " />
<glyph glyph-name="eight" unicode="8" horiz-adv-x="937" d="M1146 597 Q1094 463 798 353 Q843 313 843 262 Q843 240 833 217 Q789 103 598 14 Q431 -63 307 -63 Q153 -63 153 54 Q153 86 163 112 Q199 203 361 304 Q196 324 196 393 Q196 407 202 423 Q209 443 234 466 Q297 526 561 632 Q799 727 911 752 Q981 768 1052 768 Q1102 768 1130.5 738 Q1159 708 1159 661 Q1159 630 1146 597 Z M1012 625 Q1015 633 1010 633 Q1008 633 1002.5 631.5 Q997 630 994 630 Q910 630 649 529 Q599 510 548 492 Q475 466 454 450 Q476 442 526 434 Q573 427 602 427 Q646 427 864 507 Q905 522 949 555 Q1000 592 1012 625 Z M701 223 Q704 242 582 271 Q302 152 302 96 Q302 84 329 84 Q361 84 426 98 Q487 111 526 124 Q579 143 693 218 L701 223 Z " />
<glyph glyph-name="nine" unicode="9" horiz-adv-x="853" d="M1053 579 Q1009 465 856 312 Q707 163 539 59 Q356 -54 242 -54 Q217 -54 202.5 -39.5 Q188 -25 188 -2 Q188 11 193 25 Q209 64 262 85 Q299 96 374 124 Q489 177 624.5 278.5 Q760 380 845 476 Q725 386 574 316 Q403 237 298 237 Q242 237 207 261 Q172 285 172 330 Q172 354 183 383 Q225 489 448 615 Q617 710 781 765 Q863 792 928 792 Q941 797 954 797 Q1007 797 1039 754 Q1067 714 1067 655 Q1067 615 1053 579 Z M876 659 Q862 658 835 652 Q713 622 568 545 Q427 470 316 379 Q413 380 579 460 Q732 534 831 618 Q858 641 876 659 Z " />
<glyph glyph-name="colon" unicode="&#x3a;" horiz-adv-x="592" d="M603 338 Q588 301 540 283 Q504 270 389 257 Q286 245 237 245 Q211 245 196 262 Q181 279 181 304 Q181 320 188 336 Q206 384 263 399 Q328 416 440 416 Q459 416 496 416 Q534 415 553 415 Q577 415 592.5 400.5 Q608 386 608 363 Q608 351 603 338 Z M563 56 Q549 20 500 2 Q465 -12 350 -25 Q247 -36 197 -36 Q171 -36 156.5 -19.5 Q142 -3 142 22 Q142 38 148 55 Q167 102 224 117 Q288 135 400 135 Q419 135 456.5 134 Q494 133 513 133 Q537 133 552.5 118.5 Q568 104 568 82 Q568 69 563 56 Z " />
<glyph glyph-name="semicolon" unicode="&#x3b;" horiz-adv-x="536" d="M636 414 Q621 377 573 359 Q537 346 422 333 Q319 321 269 321 Q244 321 229 338 Q214 355 214 380 Q214 396 221 412 Q239 460 296 475 Q361 492 473 492 Q492 492 529 492 Q567 491 586 491 Q610 491 625.5 476.5 Q641 462 641 439 Q641 427 636 414 Z M476 182 Q439 85 349 -32 Q250 -163 163 -210 Q134 -226 112 -226 Q62 -226 62 -174 Q62 -136 99 -99 Q146 -54 235 42 Q251 62 357 224 Q390 274 431 274 Q484 274 484 218 Q484 200 476 182 Z " />
<glyph glyph-name="less" unicode="&#x3c;" horiz-adv-x="833" d="M1073 698 Q1060 664 1021 644 Q977 620 901 596 Q805 565 779 555 Q594 480 366 324 Q342 309 314 284 Q312 279 330 268 Q398 224 530 182 Q682 133 719 90 Q735 72 735 48 Q735 15 709 -14.5 Q683 -44 650 -44 Q637 -44 622 -37 Q511 8 400 52 Q263 108 195 158 Q151 190 151 242 Q151 265 161 290 Q181 342 250 395 Q261 404 371 477 Q514 571 693 649 Q872 727 1024 761 Q1035 764 1043 764 Q1078 764 1078 724 Q1078 711 1073 698 Z " />
<glyph glyph-name="equal" unicode="&#x3d;" horiz-adv-x="958" d="M1070 435 Q1055 396 1000 380 Q919 356 802 344 Q704 335 607 326 Q522 315 437 304 Q338 292 271 292 Q194 292 194 331 Q194 347 203 371 Q218 407 264 428 Q319 452 451 468 Q546 478 642 488 Q736 502 830 516 Q943 532 1015 532 Q1079 532 1079 478 Q1079 459 1070 435 Z M981 193 Q966 155 912 138 Q830 114 713 103 Q616 94 518 85 Q434 74 349 63 Q250 50 183 50 Q106 50 106 90 Q106 106 115 129 Q129 166 176 186 Q231 211 362 227 Q458 236 553 246 Q648 260 742 274 Q855 291 927 291 Q991 291 991 236 Q991 217 981 193 Z " />
<glyph glyph-name="greater" unicode="&#x3e;" horiz-adv-x="854" d="M977 432 Q956 376 888 323 Q876 314 765 241 Q620 146 442 68.5 Q264 -9 112 -42 Q102 -45 94 -45 Q58 -45 58 -5 Q58 9 63 22 Q76 55 116 75 Q160 98 236 122 Q331 152 357 163 Q542 238 770 394 Q794 410 821 434 Q827 450 718 493 Q551 557 531 566 Q394 629 400 676 Q403 705 431 734.5 Q459 764 487 764 Q499 764 516 756 Q542 743 736 667 Q872 614 942 560 Q986 526 986 477 Q986 455 977 432 Z " />
<glyph glyph-name="question" unicode="&#x3f;" horiz-adv-x="888" d="M1089 638 Q1071 592 918 492 Q814 428 710 364 L719 365 Q771 368 771 311 Q771 294 765 277 Q747 231 693 209 Q648 192 585 181 Q532 173 479 165 Q462 162 363 140 Q291 123 250 123 Q200 123 200 175 Q200 239 262 280 Q277 291 422 365 Q598 455 652 484 Q837 583 853 611 Q846 618 790 618 Q595 618 363 558 Q345 553 335 553 Q289 553 289 598 Q289 610 294 624 Q326 703 541 745 Q687 773 818 773 Q906 773 984 752 Q1095 722 1095 664 Q1095 652 1089 638 Z M610 13 Q595 -25 546 -43 Q512 -55 393 -68 Q286 -80 239 -80 Q213 -80 198.5 -63 Q184 -46 184 -21 Q184 -5 190 11 Q208 58 265 73 Q330 90 446 90 Q465 90 503 90 Q541 89 560 89 Q584 89 599.5 74.5 Q615 60 615 38 Q615 25 610 13 Z " />
<glyph glyph-name="at" unicode="&#x40;" horiz-adv-x="1046" d="M1198 496 Q1157 392 1071 297 Q967 182 873 182 Q851 182 817.5 196.5 Q784 211 777 211 Q780 211 699 174 Q618 137 566 137 Q495 137 446.5 176 Q398 215 398 278 Q398 310 412 345 Q453 449 595 564 Q742 684 844 684 Q886 684 923 655.5 Q960 627 960 588 Q960 557 935 528 Q889 399 889 358 Q889 335 902 335 Q947 335 1001 409 Q1040 463 1063 521 Q1078 558 1078 586 Q1078 650 998 669 Q963 679 929 690 Q887 702 856 702 Q712 702 585 629 Q454 553 366 412 Q318 334 318 264 Q318 174 383.5 111.5 Q449 49 541 49 Q595 49 665 77 Q699 90 774 129 Q829 157 845 157 Q888 157 888 114 Q888 99 882 81 Q850 2 709 -58 Q588 -110 500 -110 Q352 -110 260 -14 Q172 78 172 220 Q172 304 205 389 Q267 547 417 668 Q561 785 733 823 Q818 841 906 841 Q1049 841 1133 792 Q1227 736 1227 628 Q1227 569 1198 496 Z M791 511 Q795 528 789 528 Q751 528 657 448 Q567 371 550 329 Q547 322 547 315 Q549 283 604 283 Q645 283 684 300 Q732 322 746 359 Q762 400 791 511 Z " />
<glyph glyph-name="A" unicode="A" horiz-adv-x="869" d="M871 7 Q843 -62 776 -62 Q725 -62 725 33 Q725 44 725 65 Q726 87 726 96 Q726 148 706 148 Q653 148 445 103 Q231 57 193 33 Q159 9 125 -15 Q81 -47 57 -47 Q15 -47 15 -6 Q15 18 34 43 Q62 81 114 131 Q157 173 201 214 Q255 267 435 467 Q580 629 674 709 Q713 743 750 743 Q809 743 844 565 Q891 330 891 177 Q891 58 871 7 Z M712 304 Q714 308 714 317 Q714 355 698.5 432 Q683 509 674 509 Q664 509 610 452 Q577 417 545 382 Q492 333 397 230 Q407 231 430 237 Q552 269 679 293 Q708 298 710 298 L712 304 Z " />
<glyph glyph-name="B" unicode="B" horiz-adv-x="894" d="M1107 598 Q1080 529 990 460 Q919 405 828 364 Q794 350 757 331 Q757 330 770 326 Q816 309 846 271 Q876 233 876 184 Q876 155 864 125 Q818 6 607 -51 Q461 -90 304 -90 Q231 -90 167 -67 Q83 -38 83 16 Q83 63 126 95 Q142 161 229 383 Q276 503 297 567 Q307 602 330 674 Q365 763 424 763 Q448 763 460 746 Q466 738 473 715 Q478 698 485 698 Q495 698 523 707 Q745 773 915 773 Q1120 773 1120 658 Q1120 631 1107 598 Z M966 615 Q818 615 748 605 Q456 562 418 511 Q405 494 377 421 Q358 374 358 363 Q358 353 366 353 Q386 353 437 368 Q783 468 959 610 L966 615 Z M729 143 Q731 150 714 161 Q654 203 472 203 Q406 203 357 196 Q332 193 307 190 Q279 183 269 159 Q266 151 264 139 Q254 97 254 87 Q254 72 266.5 67 Q279 62 315 62 Q522 62 654 112 Q678 120 703 131 Q727 139 729 143 Z " />
<glyph glyph-name="C" unicode="C" horiz-adv-x="982" d="M1082 696 Q1071 667 1045 647.5 Q1019 628 991 628 Q974 628 930.5 639 Q887 650 859 650 Q717 650 522 514.5 Q327 379 271 236 Q250 183 250 142 Q250 32 392 32 Q467 32 574 63 Q676 93 760 137 Q805 161 841 191 Q849 197 913 255 Q951 289 981 289 Q1035 289 1035 232 Q1035 200 1015 171 Q933 56 708 -37 Q504 -121 369 -121 Q243 -121 172 -62 Q101 -3 101 101 Q101 169 133 250 Q219 469 461 637 Q700 803 920 803 Q979 803 1025 787 Q1087 765 1087 723 Q1087 710 1082 696 Z " />
<glyph glyph-name="D" unicode="D" horiz-adv-x="933" d="M1106 524 Q1028 325 683 126 Q397 -40 141 -102 Q124 -106 111 -106 Q64 -106 64 -53 Q64 -15 87 43 Q91 52 124 124 Q231 361 290 553 Q295 571 306 606 Q321 643 363 671 Q443 723 613 758 Q759 788 863 788 Q969 788 1042 744 Q1123 694 1123 608 Q1123 569 1106 524 Z M944 530 Q949 542 949 553 Q949 613 786 613 Q717 613 615 597 Q479 577 448 544 Q431 526 416 490 Q405 461 395 432 Q375 382 332.5 281.5 Q290 181 270 131 Q264 115 270 115 Q319 115 467 180 Q592 234 733 328 Q912 448 944 530 Z " />
<glyph glyph-name="E" unicode="E" horiz-adv-x="867" d="M1127 633 Q1116 604 1090 581.5 Q1064 559 1036 559 Q1022 559 1001 576 Q953 616 813 616 Q638 616 529 572 Q488 556 456 518 Q424 480 416 437 L433 435 Q453 434 475 437 Q507 443 515 443 Q731 461 859 461 Q933 461 933 415 Q933 397 923 369 Q907 328 854 318 Q805 308 582 300 Q379 293 339 276 Q316 266 299 224 Q282 182 279 146 Q275 116 291 107 Q301 102 338 102 Q462 102 762 187 Q780 193 791 193 Q836 193 836 144 Q836 95 784 63 Q700 12 543 -29 Q395 -68 304 -68 Q219 -68 167 -36 Q109 1 109 72 Q109 123 146 216 Q169 276 202 337 Q205 364 230 388 Q260 444 289 500 Q326 566 366 607 Q509 750 789 750 Q906 750 1050 723 Q1097 715 1109 709 Q1133 697 1133 666 Q1133 649 1127 633 Z " />
<glyph glyph-name="F" unicode="F" horiz-adv-x="894" d="M1014 526 Q999 526 988 538 Q972 556 969 558 Q929 584 816 584 Q685 584 567 556 Q504 541 465 506 Q432 476 398 413 Q384 386 384 381 Q384 371 414 371 Q422 371 507 378 Q727 397 867 397 Q936 397 936 350 Q936 332 925 306 Q909 263 856 254 Q825 248 779 246 Q741 244 703 243 L382 220 Q355 218 351 217 Q332 215 319 206 Q300 193 275 131 Q255 78 251 54 Q251 44 246 21 Q237 -4 214 -22.5 Q191 -41 167 -41 Q113 -41 113 34 Q113 115 171 264 Q202 341 247 430 Q308 548 349 588 Q484 721 774 721 Q931 721 1048 685 Q1057 687 1065 687 Q1114 687 1114 639 Q1114 600 1083 563 Q1052 526 1014 526 Z " />
<glyph glyph-name="G" unicode="G" horiz-adv-x="993" d="M999 621 Q990 621 973 625 Q905 642 862 642 Q721 642 526 509 Q331 376 276 236 Q256 185 256 147 Q256 39 397 39 Q453 39 527 56 Q592 71 701 114 Q842 170 856 205 Q861 218 778 218 Q621 218 447 168 Q424 162 412 162 Q389 162 374.5 180.5 Q360 199 360 224 Q360 237 364 250 Q386 305 556 341 Q685 368 772 368 L844 368 Q951 368 995 362 Q1063 353 1063 280 Q1063 248 1052 220 Q1044 198 1018 171 Q904 47 709 -36 Q527 -113 378 -113 Q251 -113 179.5 -56 Q108 1 108 104 Q108 171 140 251 Q225 469 468 634 Q705 796 924 796 Q983 796 1029 780 Q1092 759 1092 717 Q1092 683 1062 652 Q1032 621 999 621 Z " />
<glyph glyph-name="H" unicode="H" horiz-adv-x="931" d="M1128 692 Q1107 568 1017 373 Q1009 357 994 325 Q991 318 988 305.5 Q985 293 982 286 Q977 274 967 262 Q927 162 839 -35 Q806 -103 749 -103 Q698 -103 698 -49 Q698 -10 724 58 Q743 106 763 155 Q783 204 783 212 Q783 228 766 228 Q678 228 535 220 Q348 209 320 194 Q312 189 303.5 167.5 Q295 146 281.5 101 Q268 56 259 34 Q216 -78 150 -78 Q95 -78 95 -28 Q95 -17 98 -3 Q128 153 198 331 Q261 493 347 645 Q387 715 437 715 Q486 715 486 661 Q486 628 468 580 Q456 550 424.5 489.5 Q393 429 381 399 Q372 375 372 373 Q372 370 374 370 Q383 370 382 369 Q414 373 476 379 Q564 387 673 387 Q700 387 753 384.5 Q806 382 833 382 Q850 382 859 390 Q864 395 873 415 Q901 476 942 582 Q990 706 1009 750 L1014 750 Q1042 783 1080 783 Q1132 783 1132 728 Q1132 713 1128 692 Z " />
<glyph glyph-name="I" unicode="I" horiz-adv-x="910" d="M1095 689 Q1081 651 1032 639 Q992 629 823 607 Q808 605 792 602.5 Q776 600 766 587 Q751 568 688 407 Q674 371 640.5 300 Q607 229 593.5 195 Q580 161 582 153 Q584 139 700 135 Q839 129 844 128 Q892 118 892 77 Q892 64 885 48 Q874 19 849 0 Q824 -19 795 -19 Q547 -19 468 -24 Q423 -26 303 -43 Q198 -57 140 -57 Q113 -57 95 -39 Q77 -21 77 5 Q77 18 82 32 Q99 75 165 95 Q193 104 293 119 Q372 131 401 149 Q417 160 447 225 Q466 268 485 311 Q512 366 562 476 Q585 534 585 557 Q585 576 571 576 Q563 576 545 574 Q527 572 519 572 Q434 570 420 570 Q362 570 362 619 Q362 631 367 645 Q385 689 434 700 Q459 705 499 707 Q549 709 563 710 L661 721 Q697 738 730 738 Q745 738 755 733 Q829 744 903 754 Q989 765 1048 765 Q1071 765 1085.5 750 Q1100 735 1100 713 Q1100 701 1095 689 Z " />
<glyph glyph-name="J" unicode="J" horiz-adv-x="971" d="M1225 662 Q1213 632 1182 622 Q1177 620 1129 614 Q1101 609 1095 594 Q1092 587 1085 558 Q1027 312 853 134 Q661 -62 424 -62 Q297 -62 216.5 12.5 Q136 87 136 204 Q136 260 154.5 307 Q173 354 213 396 Q261 446 305 446 Q353 446 353 393 Q353 377 346 361 Q331 321 299 275 Q291 254 291 234 Q291 177 346 134 Q398 94 458 94 Q559 94 659.5 152.5 Q760 211 825 308 Q885 397 927 504 Q944 547 945 563 Q945 575 941.5 578 Q938 581 924 581 Q888 581 827 570 Q749 557 729 555 Q652 546 567 546 Q495 546 495 595 Q495 611 503 631 Q518 668 567 680 Q625 694 720 699 Q835 706 871 711 Q1106 744 1181 744 Q1232 744 1232 696 Q1232 680 1225 662 Z " />
<glyph glyph-name="K" unicode="K" horiz-adv-x="822" d="M1036 653 Q964 469 608 300 Q579 284 515 258 Q499 254 481 248 Q617 194 676 160 Q810 82 782 13 Q771 -15 748 -38 Q721 -64 695 -64 Q676 -64 656 -44 Q626 -16 611 -3 Q585 18 560 31 Q518 53 415 93 Q298 139 270 140 Q266 125 246 74 Q198 -50 151 -50 Q126 -50 112.5 -31.5 Q99 -13 102 13 Q111 81 164 217 Q156 260 195 298 L240 412 Q268 482 283 527 Q292 561 315 630 Q352 724 408 724 Q458 724 458 667 Q458 623 426 542 Q409 500 391 458 Q370 407 363 371 Q374 371 394 377 Q617 440 803 581 Q835 605 869 642 Q898 675 928 708.5 Q958 742 995 742 Q1044 742 1044 692 Q1044 674 1036 653 Z " />
<glyph glyph-name="L" unicode="L" horiz-adv-x="814" d="M789 71 Q722 21 565 -21 Q421 -59 338 -59 Q229 -59 178 -33 Q116 -1 116 80 Q116 135 142 201 Q166 263 272 450.5 Q378 638 420 694 Q458 742 498 742 Q546 742 546 691 Q546 661 513 615 Q487 581 460 546 Q424 490 366 372 Q314 266 286 195 Q271 158 271 140 Q271 109 338 109 Q426 109 555 140 Q666 169 777 198 Q791 201 799 201 Q838 201 838 159 Q838 106 789 71 Z " />
<glyph glyph-name="M" unicode="M" horiz-adv-x="1126" d="M1098 -3 Q1091 -36 1066.5 -58.5 Q1042 -81 1009 -81 Q956 -81 950 -21 Q948 -2 953 101 Q961 252 960 415 Q961 436 958 475 Q923 437 884 378 Q851 328 818 278 Q763 207 658 63 Q651 53 632 13 Q616 -19 599 -36 Q557 -77 497 -77 Q466 -77 452 -65 Q438 -53 435 -23.5 Q432 6 432 40 Q432 91 442.5 198 Q453 305 453 357 Q453 391 450 419 Q436 395 406 347 Q329 223 262 127 Q221 69 176 16 Q106 -64 76 -64 Q33 -64 33 -24 Q33 -11 38 4 Q61 61 133 171 Q189 255 245 339 Q294 423 343 507 Q402 608 451 672 Q492 725 537 725 Q575 725 592 682 Q619 611 619 458 Q619 383 609 224 Q608 201 607 205 Q669 277 782 464 Q892 645 960 722 Q996 761 1038 761 Q1072 761 1086 731 Q1124 649 1124 373 Q1124 124 1098 -3 Z " />
<glyph glyph-name="N" unicode="N" horiz-adv-x="878" d="M1030 685 Q1017 579 950 349 Q926 266 902 183 Q874 86 847 17 Q834 -15 804 -41 Q771 -69 740 -69 Q719 -69 699 -49 Q604 52 532 205 Q491 290 417 494 Q411 481 400 459 Q393 444 319 316 Q269 230 247 172 Q222 109 222 67 Q222 45 229 28 Q241 -6 241 -15 Q241 -26 236 -40 Q227 -64 208 -81 Q186 -101 164 -101 Q134 -101 107 -69 Q83 -42 77 -12 Q74 5 74 25 Q74 97 117 206 Q167 334 288 529 Q317 579 346 629 Q382 690 412 727 Q453 781 507 781 Q545 781 555 735 Q567 668 580 601 Q595 523 614 472 Q678 299 745 215 Q768 286 797 381 Q817 458 838 535 Q864 627 888 690 Q916 762 973 762 Q1005 762 1019.5 739.5 Q1034 717 1030 685 Z " />
<glyph glyph-name="O" unicode="O" horiz-adv-x="1006" d="M1140 500 Q1146 426 1118 353 Q1066 220 914 107 Q781 7 625 -40 Q493 -80 365 -80 Q252 -80 187.5 -20 Q123 40 123 140 Q123 205 152 277 Q227 470 434 615 Q641 760 835 760 Q971 760 1050 692 Q1129 624 1140 500 Z M979 373.5 Q993 409 993 446 Q993 502 965 539 Q934 579 881 579 Q863 579 826.5 576.5 Q790 574 772 574 Q757 574 734 582.5 Q711 591 696 591 Q594 591 455 468 Q326 353 285 246 Q271 212 271 183 Q271 129 320 101 Q363 76 434 76 Q556 76 696 137 Q844 202 937 305 Q965 338 979 373.5 Z " />
<glyph glyph-name="P" unicode="P" horiz-adv-x="883" d="M1091 545 Q1052 447 897 368 Q817 328 647 272 Q561 241 389 183 Q334 168 268 146 Q261 142 228 56 Q187 -47 142 -47 Q116 -47 103 -29 Q90 -11 93 15 Q101 83 141 189 Q177 277 213 365 Q254 470 274 530 Q283 567 307 641 Q341 728 395 728 Q418 728 449 709.5 Q480 691 495 691 Q505 691 533 695 Q796 724 932 724 Q1003 724 1050 694 Q1103 660 1103 602 Q1103 576 1091 545 Z M929 546 Q937 565 832 565 Q764 565 623 553 Q448 537 423 518 Q394 497 370 438 Q359 409 336 330 Q391 330 822 490 Q863 505 880 513 Q924 532 929 546 Z " />
<glyph glyph-name="Q" unicode="Q" horiz-adv-x="1016" d="M1144 481 Q1144 425 1123 371 Q1084 271 959 162 Q899 114 839 65 Q837 60 846 37 Q857 10 857 -7 Q857 -38 825 -67.5 Q793 -97 762 -97 Q733 -97 717.5 -54 Q702 -11 685 -11 Q672 -11 626 -24 Q493 -64 388 -64 Q267 -64 195.5 -7 Q124 50 124 151 Q124 213 152 284 Q232 488 434.5 632 Q637 776 841 776 Q978 776 1061 696.5 Q1144 617 1144 481 Z M996 462 Q996 517 966 555.5 Q936 594 884 594 Q866 594 829 591.5 Q792 589 774 589 Q759 589 735 598.5 Q711 608 696 608 Q594 608 456 483 Q328 367 287 261 Q273 227 273 198 Q273 147 315 119 Q354 94 419 94 Q431 94 455 93 Q479 92 492 92 Q631 92 631 133 Q631 152 600 227 Q569 302 569 341 Q569 376 596 405 Q623 434 659 434 Q686 434 701 398 Q719 344 737 289 Q767 204 787 204 Q807 204 865 253 Q911 291 939 322 Q963 349 977 378 Q996 418 996 462 Z " />
<glyph glyph-name="R" unicode="R" horiz-adv-x="908" d="M1106 550 Q1073 466 956 398 Q873 350 724 298 Q524 229 518 227 Q573 205 628 183 Q713 148 753 115 Q809 69 791 22 Q779 -6 756 -29 Q729 -54 702 -54 Q683 -54 662 -36 Q591 22 479 63 Q410 89 267 126 Q267 123 260 106 Q231 33 224 19 Q191 -42 156 -42 Q108 -42 108 15 Q108 66 155 184 Q158 193 162.5 209 Q167 225 170.5 233.5 Q174 242 182.5 259.5 Q191 277 194 286 Q228 369 288 536 Q297 571 321 643 Q356 734 412 734 Q435 734 466.5 715 Q498 696 509 696 Q518 696 547 700 Q766 729 948 729 Q1018 729 1065 698 Q1117 665 1117 607 Q1117 580 1106 550 Z M952 559 Q921 572 888 572 Q810 572 664 560 Q497 547 445 532 Q430 527 426 524.5 Q422 522 415 509.5 Q408 497 392 457 Q359 373 351 333 Q383 334 547 389 Q673 432 757 463 Q902 518 952 559 Z " />
<glyph glyph-name="S" unicode="S" horiz-adv-x="957" d="M1153 686 Q1133 635 1084 635 Q1062 635 1049 651 Q1019 662 1010 662 Q926 662 770 598 Q640 545 527 478 Q514 471 491 453 L503 452 Q514 452 606 467 Q796 497 870 497 Q951 497 1000 472 Q1060 443 1060 383 Q1060 354 1047 320 Q1012 232 868 120 Q756 33 632 -32 Q469 -117 299 -117 Q209 -117 144 -80 Q68 -37 68 36 Q68 78 90 118.5 Q112 159 147 183 Q190 212 213 212 Q233 212 248 194 Q263 176 263 153 Q263 143 259 134 Q257 130 246 111 Q237 97 237 89 Q237 54 352 54 Q593 54 858 282 Q908 325 915 344 Q920 356 866 356 Q714 356 455 300 Q412 290 368 281 Q317 270 283 270 Q199 270 199 324 Q199 354 224 386 Q378 586 710 716 Q920 798 1038 798 Q1085 798 1119 779 Q1159 757 1159 719 Q1159 703 1153 686 Z " />
<glyph glyph-name="T" unicode="T" horiz-adv-x="717" d="M969 678 Q956 644 906 628 Q876 619 809.5 613 Q743 607 723 600 Q691 589 676 550 Q674 546 661 497 Q645 441 568 243 Q551 201 524.5 119 Q498 37 482 -4 Q455 -73 396 -73 Q342 -73 342 -3 Q342 69 403 224 Q415 255 440.5 315.5 Q466 376 478 406 Q508 483 514 530 Q517 550 511 558 Q505 566 486 566 Q458 566 400.5 561.5 Q343 557 316 557 Q236 557 236 601 Q236 617 245 641 Q260 678 309 689 Q367 701 461 708 Q575 715 613 720 Q853 754 922 754 Q945 754 959.5 739.5 Q974 725 974 703 Q974 690 969 678 Z " />
<glyph glyph-name="U" unicode="U" horiz-adv-x="951" d="M1106 683 Q1095 618 1055 511 Q1002 368 993 338.5 Q984 309 952 180 Q928 83 903 21 Q886 -24 872 -42 Q848 -75 812 -75 Q763 -75 763 -26 Q763 -7 771 26.5 Q779 60 779 68 Q779 79 772 79 Q761 79 732 64 Q394 -101 248 -101 Q179 -101 140 -52 Q105 -8 105 62 Q105 87 110 112 Q115 134 134 184 Q188 322 291 514 Q435 781 499 781 Q554 781 554 723 Q554 705 546 686 Q537 662 494 602 Q444 532 433 513 Q349 368 293 226 Q258 134 258 91 Q258 56 296 56 Q351 56 438 85 Q512 110 640 169 Q796 242 820 277 Q831 294 843 323 Q860 368 887.5 458 Q915 548 933 593 Q994 749 1060 749 Q1107 749 1107 701 Q1107 692 1106 683 Z " />
<glyph glyph-name="V" unicode="V" horiz-adv-x="789" d="M1018 639 Q994 601 948 551 Q909 509 870 467 Q798 385 729 299 Q664 215 600 130 Q520 26 457 -29 Q419 -62 382 -62 Q344 -62 317 12 Q298 64 291 122 Q264 350 264 451 Q264 562 284 653 Q291 688 319 716.5 Q347 745 381 745 Q427 745 434 686 Q435 675 434 545 Q433 462 450 230 Q453 190 457 190 Q470 190 557 297 Q906 728 993 728 Q1033 728 1033 685 Q1033 662 1018 639 Z " />
<glyph glyph-name="W" unicode="W" horiz-adv-x="1093" d="M1346 668 Q1335 639 1288 575 Q1253 529 1218 482 Q1156 397 984 134 Q929 48 927 46 Q892 -5 861 -37 Q824 -74 787 -74 Q753 -74 737 -45 Q695 33 695 267 Q695 370 704 441 Q685 417 622 311 Q574 227 526 143 Q467 44 416 -21 Q376 -73 328 -73 Q290 -73 276 -32 Q251 39 251 270 Q251 572 290 671 Q314 732 373 732 Q425 732 431 674 Q433 654 433 629 Q433 584 422.5 481.5 Q412 379 412 332 Q412 273 424 236 Q437 262 471 317 Q531 406 591 495 Q672 616 693 669 Q694 673 696.5 681 Q699 689 701 693 Q725 755 797 755 Q834 755 851 742 Q868 729 871 697 Q874 664 871 613 Q868 570 865 527 Q855 349 866 238 Q868 217 871 217 Q875 217 886 235 Q967 361 1087 516 Q1259 740 1309 740 Q1352 740 1352 694 Q1352 681 1346 668 Z " />
<glyph glyph-name="X" unicode="X" horiz-adv-x="841" d="M1077 654 Q1069 635 1048 615 Q1023 592 815 453 Q626 328 616 302 Q615 299 615 296 Q615 267 696 187 Q746 139 796 90 Q814 69 814 46 Q814 12 784 -18.5 Q754 -49 720 -49 Q682 -49 621 10 Q583 46 523 119 Q474 177 469 177 Q469 177 351.5 75 Q234 -27 201 -27 Q178 -27 163 -9.5 Q148 8 148 32 Q148 44 152 56 Q168 97 278.5 194.5 Q389 292 396 309 Q401 322 346 450 Q287 587 287 638 Q287 653 291 663 Q302 691 326 710 Q350 729 377 729 Q410 729 447 653 Q456 635 505 511 Q536 434 552 432 Q578 445 665 508 Q790 599 833 626 Q931 690 1011 719 Q1026 725 1038 725 Q1082 725 1082 680 Q1082 667 1077 654 Z " />
<glyph glyph-name="Y" unicode="Y" horiz-adv-x="777" d="M1063 686 Q1050 652 975 584 Q920 536 865 488 Q760 390 635 228 Q443 -21 425 -43 Q392 -82 359 -82 Q332 -82 315 -64 Q298 -46 298 -20 Q298 -4 304 11 Q314 36 350 82.5 Q386 129 395 153 Q398 161 399 165 Q400 184 387 214 Q324 349 307 394 Q251 534 251 606 Q251 630 257 646 Q267 671 288 690 Q309 709 332 709 Q357 709 372 683 Q379 672 447 490 Q506 330 524 330 Q531 330 569 376 Q593 404 616 433 Q699 528 795 612 Q915 716 1001 754 Q1020 762 1033 762 Q1070 762 1070 719 Q1070 703 1063 686 Z " />
<glyph glyph-name="Z" unicode="Z" horiz-adv-x="945" d="M1132 568 Q1122 542 1083 521 Q1041 500 971 475 Q884 444 858 433 Q707 369 566 299 Q332 185 316 144 Q314 139 314 135 Q314 113 360 113 Q476 113 610 158 Q611 158 848 250 Q873 260 888 260 Q939 260 939 201 Q939 183 932 166 Q918 131 880 106 Q782 44 610 -3 Q449 -47 343 -47 Q270 -47 190 -12 Q95 30 95 90 Q95 104 101 119 Q131 197 423 362 Q623 475 808 558 Q823 563 854 576 Q841 585 737 585 Q667 585 484 565 Q393 556 377 556 Q326 556 326 595 Q326 605 331 618 Q343 651 387 669 Q453 698 590 714 Q698 726 791 726 Q926 726 1020 700 Q1168 660 1132 568 Z " />
<glyph glyph-name="bracketleft" unicode="&#x5b;" horiz-adv-x="588" d="M704 847 Q690 812 647 803 Q638 801 571 798 Q531 796 524 778 Q517 760 513 732 Q511 709 508 686 Q485 551 411 360 Q387 299 333.5 177.5 Q280 56 257 -4 Q246 -30 246 -41 Q246 -48 251 -48 Q286 -48 360 -30.5 Q434 -13 469 -13 Q498 -13 517 -28 Q536 -43 536 -68 Q536 -81 530 -96 Q513 -141 460 -157 Q396 -169 267 -206 Q85 -273 47 -273 Q-3 -273 -3 -220 Q-3 -202 5 -183 Q15 -158 37 -136 Q72 -101 84 -83 Q91 -71 109 -25 Q135 41 191 172 Q247 303 273 369 Q382 647 378 795 Q376 836 386 860 Q402 901 452 914 Q479 921 534 921 Q543 921 569 922 Q595 923 609 923 Q710 923 710 875 Q710 863 704 847 Z " />
<glyph glyph-name="backslash" unicode="&#x5c;" horiz-adv-x="1095" d="M1039 -183 Q1012 -183 919 -76 Q856 -3 809 61 Q611 330 302 754 Q269 800 269 824 Q269 834 272 843 Q281 865 300 885 Q323 909 344 909 Q379 909 465 801 Q477 787 570 659 Q745 428 1090 -37 Q1121 -80 1121 -102 Q1121 -129 1093 -156 Q1065 -183 1039 -183 Z " />
<glyph glyph-name="bracketright" unicode="&#x5d;" horiz-adv-x="576" d="M783 782.5 Q744 745 730 720 Q725 712 702 653 Q677 590 623 462.5 Q569 335 544 271 Q467 73 444 -61 Q442 -76 442 -96 Q442 -105 442 -124 Q443 -143 443 -153 Q443 -190 433 -215 Q416 -260 343 -272 Q318 -276 237 -276 Q173 -276 154 -272 Q109 -264 109 -231 Q109 -218 115 -201 Q129 -166 172 -157 Q181 -155 247 -151 Q287 -149 294 -131 Q301 -113 305 -87 Q308 -65 310 -43 Q331 76 384 221 Q411 294 488 475 Q508 520 545 608 Q570 671 570 690 Q570 695 568 695 Q534 695 462 676 Q390 657 356 657 Q325 657 304.5 672.5 Q284 688 284 715 Q284 728 290 743 Q308 788 360 803 Q423 815 552 852 Q733 919 773 919 Q822 919 822 866 Q822 820 783 782.5 Z " />
<glyph glyph-name="asciicircum" unicode="&#x5e;" horiz-adv-x="676" d="M822 508 Q814 487 794 471.5 Q774 456 753 456 Q720 456 694 508 Q675 556 654 606 Q633 656 608 656 Q584 656 458 561.5 Q332 467 302 467 Q259 467 259 511 Q259 547 290 579 Q326 617 407 671 Q515 743 533 756 Q558 778 610 818 Q633 834 653 834 Q693 834 728 781 Q754 742 769 692 Q787 647 822 556 Q831 530 822 508 Z " />
<glyph glyph-name="underscore" unicode="&#x5f;" horiz-adv-x="971" d="M907 10 Q891 -28 837 -45 Q755 -69 638 -81 Q541 -89 443 -98 Q359 -109 274 -120 Q175 -133 108 -133 Q31 -133 31 -93 Q31 -77 40 -54 Q54 -17 101 3 Q156 28 287 44 Q383 53 478 63 Q573 77 667 91 Q780 108 852 108 Q916 108 916 53 Q916 34 907 10 Z " />
<glyph glyph-name="grave" unicode="&#x60;" horiz-adv-x="535" d="M677 486 Q667 461 636 447 Q610 436 583 436 Q565 436 549 441 Q510 453 430.5 591 Q351 729 351 790 Q351 799 353 805 Q364 832 395 849 Q423 864 451 864 Q500 864 517 820 Q532 782 547 743 Q564 699 582 670 Q614 628 671 539 Q686 509 677 486 Z " />
<glyph glyph-name="a" unicode="a" horiz-adv-x="869" d="M871 7 Q843 -62 776 -62 Q725 -62 725 33 Q725 44 725 65 Q726 87 726 96 Q726 148 706 148 Q653 148 445 103 Q231 57 193 33 Q159 9 125 -15 Q81 -47 57 -47 Q15 -47 15 -6 Q15 18 34 43 Q62 81 114 131 Q157 173 201 214 Q255 267 435 467 Q580 629 674 709 Q713 743 750 743 Q809 743 844 565 Q891 330 891 177 Q891 58 871 7 Z M712 304 Q714 308 714 317 Q714 355 698.5 432 Q683 509 674 509 Q664 509 610 452 Q577 417 545 382 Q492 333 397 230 Q407 231 430 237 Q552 269 679 293 Q708 298 710 298 L712 304 Z " />
<glyph glyph-name="b" unicode="b" horiz-adv-x="894" d="M1107 598 Q1080 529 990 460 Q919 405 828 364 Q794 350 757 331 Q757 330 770 326 Q816 309 846 271 Q876 233 876 184 Q876 155 864 125 Q818 6 607 -51 Q461 -90 304 -90 Q231 -90 167 -67 Q83 -38 83 16 Q83 63 126 95 Q142 161 229 383 Q276 503 297 567 Q307 602 330 674 Q365 763 424 763 Q448 763 460 746 Q466 738 473 715 Q478 698 485 698 Q495 698 523 707 Q745 773 915 773 Q1120 773 1120 658 Q1120 631 1107 598 Z M966 615 Q818 615 748 605 Q456 562 418 511 Q405 494 377 421 Q358 374 358 363 Q358 353 366 353 Q386 353 437 368 Q783 468 959 610 L966 615 Z M729 143 Q731 150 714 161 Q654 203 472 203 Q406 203 357 196 Q332 193 307 190 Q279 183 269 159 Q266 151 264 139 Q254 97 254 87 Q254 72 266.5 67 Q279 62 315 62 Q522 62 654 112 Q678 120 703 131 Q727 139 729 143 Z " />
<glyph glyph-name="c" unicode="c" horiz-adv-x="982" d="M1082 696 Q1071 667 1045 647.5 Q1019 628 991 628 Q974 628 930.5 639 Q887 650 859 650 Q717 650 522 514.5 Q327 379 271 236 Q250 183 250 142 Q250 32 392 32 Q467 32 574 63 Q676 93 760 137 Q805 161 841 191 Q849 197 913 255 Q951 289 981 289 Q1035 289 1035 232 Q1035 200 1015 171 Q933 56 708 -37 Q504 -121 369 -121 Q243 -121 172 -62 Q101 -3 101 101 Q101 169 133 250 Q219 469 461 637 Q700 803 920 803 Q979 803 1025 787 Q1087 765 1087 723 Q1087 710 1082 696 Z " />
<glyph glyph-name="d" unicode="d" horiz-adv-x="933" d="M1106 524 Q1028 325 683 126 Q397 -40 141 -102 Q124 -106 111 -106 Q64 -106 64 -53 Q64 -15 87 43 Q91 52 124 124 Q231 361 290 553 Q295 571 306 606 Q321 643 363 671 Q443 723 613 758 Q759 788 863 788 Q969 788 1042 744 Q1123 694 1123 608 Q1123 569 1106 524 Z M944 530 Q949 542 949 553 Q949 613 786 613 Q717 613 615 597 Q479 577 448 544 Q431 526 416 490 Q405 461 395 432 Q375 382 332.5 281.5 Q290 181 270 131 Q264 115 270 115 Q319 115 467 180 Q592 234 733 328 Q912 448 944 530 Z " />
<glyph glyph-name="e" unicode="e" horiz-adv-x="867" d="M1127 633 Q1116 604 1090 581.5 Q1064 559 1036 559 Q1022 559 1001 576 Q953 616 813 616 Q638 616 529 572 Q488 556 456 518 Q424 480 416 437 L433 435 Q453 434 475 437 Q507 443 515 443 Q731 461 859 461 Q933 461 933 415 Q933 397 923 369 Q907 328 854 318 Q805 308 582 300 Q379 293 339 276 Q316 266 299 224 Q282 182 279 146 Q275 116 291 107 Q301 102 338 102 Q462 102 762 187 Q780 193 791 193 Q836 193 836 144 Q836 95 784 63 Q700 12 543 -29 Q395 -68 304 -68 Q219 -68 167 -36 Q109 1 109 72 Q109 123 146 216 Q169 276 202 337 Q205 364 230 388 Q260 444 289 500 Q326 566 366 607 Q509 750 789 750 Q906 750 1050 723 Q1097 715 1109 709 Q1133 697 1133 666 Q1133 649 1127 633 Z " />
<glyph glyph-name="f" unicode="f" horiz-adv-x="894" d="M1014 526 Q999 526 988 538 Q972 556 969 558 Q929 584 816 584 Q685 584 567 556 Q504 541 465 506 Q432 476 398 413 Q384 386 384 381 Q384 371 414 371 Q422 371 507 378 Q727 397 867 397 Q936 397 936 350 Q936 332 925 306 Q909 263 856 254 Q825 248 779 246 Q741 244 703 243 L382 220 Q355 218 351 217 Q332 215 319 206 Q300 193 275 131 Q255 78 251 54 Q251 44 246 21 Q237 -4 214 -22.5 Q191 -41 167 -41 Q113 -41 113 34 Q113 115 171 264 Q202 341 247 430 Q308 548 349 588 Q484 721 774 721 Q931 721 1048 685 Q1057 687 1065 687 Q1114 687 1114 639 Q1114 600 1083 563 Q1052 526 1014 526 Z " />
<glyph glyph-name="g" unicode="g" horiz-adv-x="993" d="M999 621 Q990 621 973 625 Q905 642 862 642 Q721 642 526 509 Q331 376 276 236 Q256 185 256 147 Q256 39 397 39 Q453 39 527 56 Q592 71 701 114 Q842 170 856 205 Q861 218 778 218 Q621 218 447 168 Q424 162 412 162 Q389 162 374.5 180.5 Q360 199 360 224 Q360 237 364 250 Q386 305 556 341 Q685 368 772 368 L844 368 Q951 368 995 362 Q1063 353 1063 280 Q1063 248 1052 220 Q1044 198 1018 171 Q904 47 709 -36 Q527 -113 378 -113 Q251 -113 179.5 -56 Q108 1 108 104 Q108 171 140 251 Q225 469 468 634 Q705 796 924 796 Q983 796 1029 780 Q1092 759 1092 717 Q1092 683 1062 652 Q1032 621 999 621 Z " />
<glyph glyph-name="h" unicode="h" horiz-adv-x="931" d="M1128 692 Q1107 568 1017 373 Q1009 357 994 325 Q991 318 988 305.5 Q985 293 982 286 Q977 274 967 262 Q927 163 839 -35 Q806 -103 749 -103 Q698 -103 698 -49 Q698 -10 723 58 Q743 106 763 155 Q783 204 783 212 Q783 228 766 228 Q678 228 535 220 Q348 209 320 194 Q312 189 303.5 167.5 Q295 146 281.5 101 Q268 56 259 34 Q216 -78 150 -78 Q95 -78 95 -28 Q95 -17 98 -3 Q128 153 198 331 Q261 493 347 645 Q387 715 437 715 Q486 715 486 661 Q486 628 468 580 Q456 550 424.5 489.5 Q393 429 381 399 Q372 375 372 373 Q372 370 374 370 Q383 370 382 369 Q414 373 476 379 Q564 387 673 387 Q700 387 753 384.5 Q806 382 833 382 Q850 382 859 390 Q864 395 873 415 Q901 476 942 582 Q990 706 1009 750 L1014 750 Q1042 783 1080 783 Q1132 783 1132 728 Q1132 713 1128 692 Z " />
<glyph glyph-name="i" unicode="i" horiz-adv-x="282" d="M470 650 Q452 545 392 407 Q339 290 285 174 Q265 120 216 12 Q180 -55 124 -55 Q75 -55 75 2 Q75 50 116 155 Q147 225 209 364 Q248 466 334 668 Q365 735 428 735 Q474 735 474 687 Q474 673 470 650 Z " />
<glyph glyph-name="j" unicode="j" horiz-adv-x="971" d="M1225 662 Q1213 632 1182 622 Q1177 620 1129 614 Q1101 609 1095 594 Q1092 587 1085 558 Q1026 312 853 134 Q661 -62 424 -62 Q297 -62 216.5 12.5 Q136 87 136 204 Q136 260 154.5 307 Q173 354 213 396 Q261 446 305 446 Q353 446 353 393 Q353 377 346 361 Q331 321 299 275 Q291 254 291 234 Q291 177 346 134 Q398 94 458 94 Q559 94 659.5 152.5 Q760 211 825 308 Q885 397 927 504 Q944 547 945 563 Q945 575 941.5 578 Q938 581 924 581 Q888 581 827 570 Q749 557 729 555 Q652 546 567 546 Q495 546 495 595 Q495 611 503 631 Q518 668 567 680 Q625 694 720 699 Q835 706 871 711 Q1106 744 1181 744 Q1232 744 1232 696 Q1232 680 1225 662 Z " />
<glyph glyph-name="k" unicode="k" horiz-adv-x="822" d="M1036 653 Q964 469 608 300 Q579 284 515 258 Q499 254 481 248 Q617 194 676 160 Q810 82 782 13 Q771 -15 748 -38 Q721 -64 695 -64 Q676 -64 656 -44 Q626 -16 611 -3 Q585 18 560 31 Q518 53 415 93 Q298 139 270 140 Q266 125 246 74 Q198 -50 151 -50 Q126 -50 112.5 -31.5 Q99 -13 102 13 Q111 81 164 217 Q156 260 195 298 L240 412 Q268 482 283 527 Q292 561 315 630 Q352 724 408 724 Q458 724 458 667 Q458 623 426 542 Q409 500 391 458 Q370 407 363 371 Q374 371 394 377 Q617 440 803 581 Q835 605 869 642 Q898 675 928 708.5 Q958 742 995 742 Q1044 742 1044 692 Q1044 674 1036 653 Z " />
<glyph glyph-name="l" unicode="l" horiz-adv-x="814" d="M789 71 Q722 21 565 -21 Q421 -59 338 -59 Q229 -59 178 -33 Q116 -1 116 80 Q116 135 142 201 Q166 263 272 450.5 Q378 638 420 694 Q458 742 498 742 Q546 742 546 691 Q546 661 513 615 Q487 581 460 546 Q424 490 366 372 Q314 266 286 195 Q271 158 271 140 Q271 109 338 109 Q426 109 555 140 Q666 169 777 198 Q791 201 799 201 Q838 201 838 159 Q838 106 789 71 Z " />
<glyph glyph-name="m" unicode="m" horiz-adv-x="1126" d="M1098 -3 Q1091 -36 1066.5 -58.5 Q1042 -81 1009 -81 Q956 -81 950 -21 Q948 -2 953 101 Q961 252 960 415 Q961 436 958 475 Q923 437 884 378 Q851 328 818 278 Q763 207 658 63 Q651 53 632 13 Q616 -19 599 -36 Q557 -77 497 -77 Q466 -77 452 -65 Q438 -53 435 -23.5 Q432 6 432 40 Q432 91 442.5 198 Q453 305 453 357 Q453 391 450 419 Q436 395 406 347 Q329 223 262 127 Q221 69 176 16 Q106 -64 76 -64 Q33 -64 33 -24 Q33 -11 38 4 Q61 60 133 171 Q189 255 245 339 Q294 423 343 507 Q402 608 451 672 Q492 725 537 725 Q575 725 592 682 Q619 611 619 458 Q619 383 609 224 Q608 201 607 205 Q669 277 782 464 Q892 645 960 722 Q996 761 1038 761 Q1072 761 1086 731 Q1124 649 1124 373 Q1124 124 1098 -3 Z " />
<glyph glyph-name="n" unicode="n" horiz-adv-x="878" d="M1030 685 Q1017 579 950 349 Q926 266 902 183 Q874 86 847 17 Q834 -15 804 -41 Q771 -69 740 -69 Q719 -69 699 -49 Q604 52 532 205 Q491 290 417 494 Q411 481 400 459 Q393 444 319 316 Q269 230 247 172 Q222 109 222 67 Q222 45 229 28 Q241 -6 241 -15 Q241 -26 236 -40 Q227 -64 208 -81 Q186 -101 164 -101 Q134 -101 107 -69 Q83 -42 77 -12 Q74 5 74 25 Q74 97 117 206 Q167 334 288 529 Q317 579 346 629 Q382 690 412 727 Q453 781 507 781 Q545 781 555 735 Q567 668 580 601 Q595 523 614 472 Q678 299 745 215 Q768 286 797 381 Q817 458 838 535 Q864 627 888 690 Q916 762 973 762 Q1005 762 1019.5 739.5 Q1034 717 1030 685 Z " />
<glyph glyph-name="o" unicode="o" horiz-adv-x="1006" d="M1140 500 Q1146 426 1118 353 Q1066 220 914 107 Q781 7 625 -40 Q493 -80 365 -80 Q252 -80 187.5 -20 Q123 40 123 140 Q123 205 152 277 Q227 470 434 615 Q641 760 835 760 Q971 760 1050 692 Q1129 624 1140 500 Z M979 373.5 Q993 409 993 446 Q993 502 965 539 Q934 579 881 579 Q863 579 826.5 576.5 Q790 574 772 574 Q757 574 734 582.5 Q711 591 696 591 Q594 591 455 468 Q326 353 285 246 Q271 212 271 183 Q271 129 320 101 Q363 76 434 76 Q556 76 696 137 Q844 202 937 305 Q965 338 979 373.5 Z " />
<glyph glyph-name="p" unicode="p" horiz-adv-x="883" d="M1091 545 Q1052 447 897 368 Q817 328 647 272 Q561 241 389 183 Q334 168 268 146 Q261 142 228 56 Q187 -47 142 -47 Q116 -47 103 -29 Q90 -11 93 15 Q101 83 141 189 Q177 277 213 365 Q254 470 274 530 Q283 567 307 641 Q341 728 395 728 Q418 728 449 709.5 Q480 691 495 691 Q505 691 533 695 Q796 724 932 724 Q1003 724 1050 694 Q1103 660 1103 602 Q1103 576 1091 545 Z M929 546 Q937 565 832 565 Q764 565 623 553 Q448 537 423 518 Q394 497 370 438 Q359 409 336 330 Q391 330 822 490 Q863 505 880 513 Q924 532 929 546 Z " />
<glyph glyph-name="q" unicode="q" horiz-adv-x="1016" d="M1144 481 Q1144 425 1123 371 Q1084 271 959 162 Q899 114 839 65 Q837 60 846 37 Q857 10 857 -7 Q857 -38 825 -67.5 Q793 -97 762 -97 Q733 -97 717.5 -54 Q702 -11 685 -11 Q672 -11 626 -24 Q493 -64 388 -64 Q267 -64 195.5 -7 Q124 50 124 151 Q124 213 152 284 Q232 488 434.5 632 Q637 776 841 776 Q978 776 1061 696.5 Q1144 617 1144 481 Z M996 462 Q996 517 966 555.5 Q936 594 884 594 Q866 594 829 591.5 Q792 589 774 589 Q759 589 735 598.5 Q711 608 696 608 Q594 608 456 483 Q328 367 287 261 Q273 227 273 198 Q273 147 315 119 Q354 94 419 94 Q431 94 455 93 Q479 92 492 92 Q631 92 631 133 Q631 152 600 227 Q569 302 569 341 Q569 376 596 405 Q623 434 659 434 Q686 434 701 398 Q719 344 737 289 Q767 204 787 204 Q807 204 865 253 Q911 291 939 322 Q963 349 977 378 Q996 418 996 462 Z " />
<glyph glyph-name="r" unicode="r" horiz-adv-x="908" d="M1106 550 Q1073 466 956 398 Q873 350 724 298 Q524 229 518 227 Q573 205 628 183 Q713 148 753 115 Q809 69 791 22 Q779 -6 756 -29 Q729 -54 702 -54 Q683 -54 662 -36 Q591 22 479 63 Q410 89 267 126 Q267 123 260 106 Q231 33 224 19 Q191 -42 156 -42 Q108 -42 108 15 Q108 66 155 184 Q158 193 162.5 209 Q167 225 170.5 233.5 Q174 242 182.5 259.5 Q191 277 194 286 Q228 369 288 536 Q297 571 321 643 Q356 734 412 734 Q435 734 466.5 715 Q498 696 509 696 Q518 696 547 700 Q766 729 948 729 Q1018 729 1065 698 Q1117 665 1117 607 Q1117 580 1106 550 Z M952 559 Q921 572 888 572 Q810 572 664 560 Q497 547 445 532 Q430 527 426 524.5 Q422 522 415 509.5 Q408 497 392 457 Q359 373 351 333 Q383 334 547 389 Q673 432 757 463 Q902 518 952 559 Z " />
<glyph glyph-name="s" unicode="s" horiz-adv-x="957" d="M1153 686 Q1133 635 1084 635 Q1062 635 1049 651 Q1019 662 1010 662 Q926 662 770 598 Q640 545 527 478 Q514 471 491 453 L503 452 Q514 452 606 467 Q796 497 870 497 Q951 497 1000 472 Q1060 443 1060 383 Q1060 354 1047 320 Q1012 232 868 120 Q756 33 632 -32 Q469 -117 299 -117 Q209 -117 144 -80 Q68 -37 68 36 Q68 78 90 118.5 Q112 159 147 183 Q190 212 213 212 Q233 212 248 194 Q263 176 263 153 Q263 143 259 134 Q257 130 246 111 Q237 97 237 89 Q237 54 352 54 Q593 54 858 282 Q908 325 915 344 Q920 356 866 356 Q714 356 455 300 Q412 290 368 281 Q317 270 283 270 Q199 270 199 324 Q199 354 224 386 Q378 586 710 716 Q920 798 1038 798 Q1085 798 1119 779 Q1159 757 1159 719 Q1159 703 1153 686 Z " />
<glyph glyph-name="t" unicode="t" horiz-adv-x="717" d="M969 678 Q956 644 906 628 Q876 619 809.5 613 Q743 607 723 600 Q691 589 676 550 Q674 546 661 497 Q645 441 568 243 Q551 201 524.5 119 Q498 37 482 -4 Q455 -73 396 -73 Q342 -73 342 -3 Q342 69 403 224 Q415 255 440.5 315.5 Q466 376 478 406 Q508 483 514 530 Q517 550 511 558 Q505 566 486 566 Q458 566 400.5 561.5 Q343 557 316 557 Q236 557 236 601 Q236 617 245 641 Q260 678 309 689 Q367 701 461 708 Q575 715 613 720 Q853 754 922 754 Q945 754 959.5 739.5 Q974 725 974 703 Q974 690 969 678 Z " />
<glyph glyph-name="u" unicode="u" horiz-adv-x="951" d="M1106 683 Q1095 618 1055 511 Q1002 368 993 338.5 Q984 309 952 180 Q928 83 903 21 Q886 -24 872 -42 Q848 -75 812 -75 Q763 -75 763 -26 Q763 -7 771 26.5 Q779 60 779 68 Q779 79 772 79 Q761 79 732 64 Q394 -101 248 -101 Q179 -101 140 -52 Q105 -8 105 62 Q105 87 110 112 Q115 134 134 184 Q188 322 291 514 Q435 781 499 781 Q554 781 554 723 Q554 705 546 686 Q537 662 494 602 Q444 532 433 513 Q349 368 293 226 Q258 134 258 91 Q258 56 296 56 Q351 56 438 85 Q512 110 640 169 Q796 242 820 277 Q831 294 843 323 Q860 368 887.5 458 Q915 548 933 593 Q994 749 1060 749 Q1107 749 1107 701 Q1107 692 1106 683 Z " />
<glyph glyph-name="v" unicode="v" horiz-adv-x="789" d="M1018 639 Q994 601 948 551 Q909 509 870 467 Q798 385 729 299 Q664 215 600 130 Q520 26 457 -29 Q419 -62 382 -62 Q344 -62 317 12 Q298 64 291 122 Q264 350 264 451 Q264 562 284 653 Q291 688 319 716.5 Q347 745 381 745 Q427 745 434 686 Q435 675 434 545 Q433 462 450 230 Q453 190 457 190 Q470 190 557 297 Q906 728 993 728 Q1033 728 1033 685 Q1033 662 1018 639 Z " />
<glyph glyph-name="w" unicode="w" horiz-adv-x="1093" d="M1346 668 Q1335 639 1288 575 Q1253 529 1218 482 Q1156 397 984 134 Q929 48 927 46 Q892 -5 861 -37 Q824 -74 787 -74 Q753 -74 737 -45 Q695 33 695 267 Q695 370 704 441 Q685 417 622 311 Q574 227 526 143 Q467 44 416 -21 Q376 -73 328 -73 Q290 -73 276 -32 Q251 39 251 270 Q251 572 290 671 Q314 732 373 732 Q425 732 431 674 Q433 654 433 629 Q433 584 422.5 481.5 Q412 379 412 332 Q412 273 424 236 Q437 262 471 317 Q531 406 591 495 Q672 616 693 669 Q695 677 701 693 Q725 755 797 755 Q834 755 851 742 Q868 729 871 697 Q874 664 871 613 Q868 570 865 527 Q855 349 866 238 Q868 217 871 217 Q875 217 886 235 Q967 361 1087 516 Q1259 740 1309 740 Q1352 740 1352 694 Q1352 681 1346 668 Z " />
<glyph glyph-name="x" unicode="x" horiz-adv-x="841" d="M1077 654 Q1069 635 1048 615 Q1023 592 815 453 Q626 328 616 302 Q615 299 615 296 Q615 267 696 187 Q746 139 796 90 Q814 69 814 46 Q814 12 784 -18.5 Q754 -49 720 -49 Q682 -49 621 10 Q583 46 523 119 Q474 177 469 177 Q469 177 351.5 75 Q234 -27 201 -27 Q178 -27 163 -9.5 Q148 8 148 32 Q148 44 152 56 Q168 97 278.5 194.5 Q389 292 396 309 Q401 322 346 450 Q287 587 287 638 Q287 653 291 663 Q302 691 326 710 Q350 729 377 729 Q410 729 447 653 Q456 635 505 511 Q536 434 552 432 Q578 445 665 508 Q790 599 833 626 Q931 690 1011 719 Q1026 725 1038 725 Q1082 725 1082 680 Q1082 667 1077 654 Z " />
<glyph glyph-name="y" unicode="y" horiz-adv-x="777" d="M1063 686 Q1050 652 975 584 Q920 536 865 488 Q760 390 635 228 Q443 -21 425 -43 Q392 -82 359 -82 Q332 -82 315 -64 Q298 -46 298 -20 Q298 -4 304 11 Q314 36 350 82.5 Q386 129 395 153 Q398 161 399 165 Q400 184 387 214 Q324 349 307 394 Q251 534 251 606 Q251 630 257 646 Q267 671 288 690 Q309 709 332 709 Q357 709 372 683 Q379 672 447 490 Q506 330 524 330 Q531 330 569 376 Q593 404 616 433 Q699 528 795 612 Q915 716 1001 754 Q1020 762 1033 762 Q1070 762 1070 719 Q1070 703 1063 686 Z " />
<glyph glyph-name="z" unicode="z" horiz-adv-x="945" d="M1132 568 Q1122 542 1083 521 Q1041 500 971 475 Q884 444 858 433 Q707 369 566 299 Q332 185 316 144 Q314 139 314 135 Q314 113 360 113 Q476 113 610 158 Q611 158 848 250 Q873 260 888 260 Q939 260 939 201 Q939 183 932 166 Q918 131 880 106 Q782 44 610 -3 Q449 -47 343 -47 Q270 -47 190 -12 Q95 30 95 90 Q95 104 101 119 Q131 197 423 362 Q623 475 808 558 Q823 563 854 576 Q841 585 737 585 Q667 585 484 565 Q393 556 377 556 Q326 556 326 595 Q326 605 331 618 Q343 651 387 669 Q453 698 590 714 Q698 726 791 726 Q926 726 1020 700 Q1168 660 1132 568 Z " />
<glyph glyph-name="braceleft" unicode="&#x7b;" horiz-adv-x="953" d="M992 502 Q952 502 872.5 550.5 Q793 599 740 656 Q680 721 696 760 Q705 785 726.5 802.5 Q748 820 772 820 Q789 820 805 806 Q834 774 898 716 Q922 699 971 674 Q1024 648 1046 633 Q1072 615 1072 588 Q1072 558 1046.5 530 Q1021 502 992 502 Z M809 333 Q792 292 739 280 Q699 272 652 269 Q618 267 567 269 Q493 270 483 270 Q444 270 363.5 264 Q283 258 244 258 Q193 258 193 310 Q193 323 198 337 Q214 379 265 395 Q327 414 461 425 Q565 433 654 433 Q738 433 761 429 Q818 418 818 374 Q818 357 809 333 Z M861 112 Q846 75 803 56 Q772 44 710 17 Q650 -15 589 -46 Q497 -95 480 -95 Q463 -95 451 -79 Q439 -63 439 -44 Q439 -35 442 -27 Q458 15 622 100 Q780 182 827 182 Q866 182 866 140 Q866 126 861 112 Z " />
<glyph glyph-name="bar" unicode="&#x7c;" horiz-adv-x="367" d="M582 839 Q567 751 510 606 Q451 455 328 173 Q319 155 234 -50 Q219 -88 185 -162 Q147 -231 93 -231 Q43 -231 43 -173 Q43 -124 94 6 Q127 88 201 252 Q275 416 307 499 Q327 550 365.5 653 Q404 756 424 808 Q448 869 462 888 Q490 924 540 924 Q586 924 586 876 Q586 862 582 839 Z " />
<glyph glyph-name="braceright" unicode="&#x7d;" horiz-adv-x="1002" d="M869 752 Q852 708 690 624 Q533 544 484 544 Q446 544 446 585 Q446 598 451 612 Q466 649 509 669 Q540 681 602 708 Q667 743 798 811 Q819 821 832 821 Q849 821 860.5 804.5 Q872 788 872 768 Q872 759 869 752 Z M1114 387 Q1098 347 1048 331 Q919 292 664 292 Q584 292 556 297 Q493 310 493 353 Q493 368 501 386 Q519 433 574 446 Q614 455 661 457 Q694 458 745 457 Q812 455 828 455 Q867 455 948 461 Q1029 467 1068 467 Q1091 467 1105 452 Q1119 437 1119 414 Q1119 401 1114 387 Z M617 -35 Q607 -59 586 -76.5 Q565 -94 541 -94 Q525 -94 508 -80 Q472 -47 436 -15 Q392 23 357 44 Q325 59 266 93 Q241 111 241 140 Q241 152 246 166 Q268 222 324 222 Q363 222 442 173.5 Q521 125 573 69 Q632 4 617 -35 Z " />
<glyph glyph-name="asciitilde" unicode="&#x7e;" horiz-adv-x="961" d="M1011 289 Q996 252 941 235 Q917 227 796 172 Q707 132 652 132 Q596 132 540.5 180 Q485 228 448 228 Q412 228 334.5 187 Q257 146 212 146 Q135 146 135 186 Q135 202 145 226 Q158 261 205 283 Q232 295 291 330 Q346 362 377 375 Q427 395 467 395 Q522 395 588.5 344 Q655 293 699 293 Q741 293 827 340 Q913 387 963 387 Q1020 387 1020 332 Q1020 312 1011 289 Z " />
<glyph glyph-name="copyright" unicode="&#xa9;" horiz-adv-x="1037" d="M1154 500 Q1160 426 1132 353 Q1080 220 928 107 Q795 7 639 -40 Q507 -80 379 -80 Q266 -80 201.5 -20 Q137 40 137 140 Q137 205 166 277 Q241 470 448 615 Q655 760 849 760 Q985 760 1064 692 Q1143 624 1154 500 Z M993 373.5 Q1007 409 1007 446 Q1007 502 979 539 Q948 579 895 579 Q877 579 840.5 576.5 Q804 574 786 574 Q771 574 748 582.5 Q725 591 710 591 Q608 591 469 468 Q340 353 299 246 Q285 212 285 183 Q285 129 334 101 Q377 76 448 76 Q570 76 710 137 Q858 202 951 305 Q979 338 993 373.5 Z M852 475 Q835 431 788 431 Q779 431 762.5 435 Q746 439 737 439 Q689 439 622.5 392.5 Q556 346 538 299 Q532 285 532 275 Q532 246 571 246 Q631 246 699 284 Q706 288 748 322 Q778 347 799 347 Q838 347 838 307 Q838 296 834 284 Q811 228 703 180 Q609 138 546 138 Q489 138 456 166 Q423 194 423 243 Q423 274 437 310 Q474 404 577 475.5 Q680 547 775 547 Q807 547 830 536 Q857 522 857 496 Q857 486 852 475 Z " />
<glyph glyph-name="registered" unicode="&#xae;" horiz-adv-x="1070" d="M1179 500 Q1185 426 1157 353 Q1105 220 953 107 Q820 7 664 -40 Q532 -80 404 -80 Q291 -80 226.5 -20 Q162 40 162 140 Q162 205 191 277 Q266 470 473 615 Q680 760 874 760 Q1010 760 1089 692 Q1168 624 1179 500 Z M1018 373.5 Q1032 409 1032 446 Q1032 502 1004 539 Q973 579 920 579 Q902 579 872 582.5 Q842 586 825.5 586 Q809 586 779.5 588.5 Q750 591 735 591 Q681 591 611 552 Q624 552 654 536 Q689 535 759 542.5 Q829 550 863 550 Q904 550 932.5 530.5 Q961 511 961 476 Q961 460 953 441 Q920 357 713 290 Q745 284 773 263 Q807 238 807 209 Q807 184 783 160 Q900 221 976 305 Q1004 338 1018 373.5 Z M807 432 Q702 432 621 414 L613 394 L604 369 Q675 388 807 432 Z M733 136 Q718 137 694 153 Q664 175 659 177 Q620 195 545 215 L542 208 Q534 185 517 165 Q496 142 474 142 Q435 142 435 187 Q435 221 457 275 Q462 289 474 315.5 Q486 342 492 356 Q507 410 547 511 Q473 456 410 381 Q347 306 324 246 Q310 212 310 183 Q310 129 359 101 Q402 76 473 76 Q594 76 733 136 Z " />
<glyph glyph-name="kcedilla" unicode="&#x137;" horiz-adv-x="1126" d="" />
<glyph glyph-name="quoteleft" unicode="&#x2018;" horiz-adv-x="405" d="M526 779.5 Q536 751 536 665 Q536 462 505 383 Q488 341 447 341 Q409 341 381 369 Q353 397 353 435 Q353 443 355 452 Q376 552 378 603 Q376 665 376 790 Q376 812 382 826 Q394 856 426 856 Q458 856 487 832 Q516 808 526 779.5 Z " />
<glyph glyph-name="quoteright" unicode="&#x2019;" horiz-adv-x="350" d="M609 756 Q587 700 490 556 Q391 408 346 367 Q318 342 288 342 Q262 342 246.5 358 Q231 374 231 398 Q231 428 259 464 Q299 512 374 612 Q409 676 486 802 Q523 857 562 857 Q587 857 601.5 838 Q616 819 616 791 Q616 773 609 756 Z " />
<glyph glyph-name="quotedblleft" unicode="&#x201c;" horiz-adv-x="664" d="M774.5 774.5 Q784 746 784 660 Q784 457 753 378 Q737 336 695 336 Q657 336 629.5 364 Q602 392 602 429 Q602 438 603 446 Q624 547 626 598 Q624 659 624 784 Q625 807 630 820 Q642 851 674 851 Q706 851 737 826 Q765 803 774.5 774.5 Z M534 779.5 Q544 751 544 666 Q544 463 513 383 Q497 342 455 342 Q417 342 389 370 Q361 398 361 435 Q361 444 363 452 Q384 552 386 603 Q384 665 384 790 Q384 812 390 826 Q402 857 434 857 Q466 857 495 832.5 Q524 808 534 779.5 Z " />
<glyph glyph-name="quotedblright" unicode="&#x201d;" horiz-adv-x="631" d="M856 751 Q835 695 738 551 Q638 403 593 361 Q565 336 535 336 Q509 336 493.5 352 Q478 368 478 393 Q478 423 506 459 Q547 507 621 607 Q656 671 733 797 Q770 852 809 852 Q834 852 848.5 833 Q863 814 863 786 Q863 768 856 751 Z M619 756 Q597 701 500 556 Q401 408 356 367 Q328 342 298 342 Q272 342 256.5 358 Q241 374 241 398 Q241 428 269 464 Q309 513 384 613 Q419 677 496 803 Q533 857 572 857 Q597 857 611.5 838 Q626 819 626 792 Q626 773 619 756 Z " />
<glyph glyph-name="ellipsis" unicode="&#x2026;" horiz-adv-x="1628" d="M1602 99 Q1587 62 1539 44 Q1503 30 1388 17 Q1285 6 1236 6 Q1210 6 1195 22.5 Q1180 39 1180 64 Q1180 81 1187 97 Q1205 145 1262 160 Q1327 177 1439 177 Q1458 177 1495 176 Q1533 176 1552 176 Q1576 176 1591.5 161 Q1607 146 1607 124 Q1607 112 1602 99 Z M1062 83 Q1048 46 1000 28 Q964 15 849 2 Q746 -10 696 -10 Q671 -10 656 7 Q641 24 641 49 Q641 65 647 81 Q666 129 723 144 Q788 161 899 161 Q918 161 956 161 Q993 160 1012 160 Q1036 160 1051.5 145.5 Q1067 131 1067 108 Q1067 96 1062 83 Z M523 68 Q509 31 460 13 Q424 0 309 -13 Q206 -25 157 -25 Q131 -25 116.5 -8.5 Q102 8 102 34 Q102 50 108 66 Q127 114 183 129 Q248 146 360 146 Q379 146 416 145 Q454 145 473 145 Q497 145 512.5 130.5 Q528 116 528 93 Q528 81 523 68 Z " />
<glyph glyph-name="trademark" unicode="&#x2122;" horiz-adv-x="1196" d="M1227 299.5 Q1208 252 1164 252 Q1122 252 1122 313 Q1122 309 1125 366 Q1125 454 1131 570 Q1108 536 1062 470 Q1030 428 968 343 Q959 322 932 283 Q903 254 862 254 Q824 254 819 291 Q816 312 816 336 Q816 368 822.5 432 Q829 496 829 526 Q789 457 731 377 Q647 262 614 262 Q582 262 582 291 Q582 301 586 311 Q601 351 642 412 Q676 461 709 511 Q738 561 766 611 Q801 671 831 708 Q861 745 893 745 Q947 745 947 592 Q947 560 944 514 Q942 464 942 457 Q961 484 1032 600 Q1087 689 1132 738 Q1158 767 1188 767 Q1212 767 1222 746 Q1246 698 1246 506 Q1246 347 1227 299.5 Z M815 708 Q802 678 761 669 Q725 665 687 660.5 Q649 656 641 635 Q638 624 633 603 Q627 579 566 403 Q556 371 534 306 Q514 256 470 256 Q432 256 432 303 Q432 346 469 452 Q496 529 524 605 Q532 634 517 634 Q500 634 466.5 631 Q433 628 416 628 Q363 628 363 660 Q363 671 369 687 Q381 716 418 724 Q452 732 508 735 Q575 740 597 743 Q740 763 781 763 Q818 763 818 727 Q818 718 815 708 Z " />
</font>
</svg>
